<svg width="64" height="64" viewBox="0 0 64 64" fill="none" xmlns="http://www.w3.org/2000/svg">
<path fill-rule="evenodd" clip-rule="evenodd" d="M37.3088 0.0772141C37.1369 0.102089 36.49 0.184839 35.8713 0.261214C35.2525 0.337589 34.0719 0.568964 33.2478 0.775339C23.8049 3.14034 16.6157 10.9577 14.9949 20.6231C14.7095 22.3247 14.6139 25.5818 14.8014 27.2148C15.003 28.97 15.483 31.125 16.0199 32.6856C16.9274 35.3233 18.701 38.4477 20.4192 40.4356C20.8352 40.9168 21.1774 41.3458 21.1797 41.389C21.1819 41.4322 20.758 41.8485 20.2378 42.3141L19.2917 43.1608L18.5815 42.46C17.483 41.376 16.55 41.1197 15.4963 41.6123C15.1565 41.7712 12.667 44.1847 7.73091 49.1408C-0.327095 57.2313 -0.0139699 56.8521 0.00628009 58.4981C0.0220301 59.7685 0.32878 60.2992 2.02703 61.994C3.26341 63.2278 3.6109 63.5028 4.21978 63.7291C5.08403 64.0505 5.79703 64.0698 6.63028 63.7946C7.18803 63.6103 7.94678 62.893 14.6614 56.2008C18.7398 52.1362 22.1494 48.67 22.2384 48.4981C22.7812 47.4507 22.5185 46.4051 21.4394 45.3162L20.684 44.5541L21.6133 43.6311L22.5425 42.7081L23.4569 43.4856C26.9954 46.4947 31.4373 48.4181 36.3415 49.065C37.5288 49.2215 37.748 49.2213 38.0533 49.0635C38.6345 48.7628 38.7418 48.0882 38.2775 47.6531C38.0588 47.4481 37.6768 47.3475 36.5588 47.2003C33.8692 46.8463 31.8844 46.2641 29.48 45.1237C26.8229 43.8636 24.7903 42.3778 22.6879 40.1593C19.4498 36.7423 17.3765 32.3505 16.752 27.5855C15.6204 18.9491 19.4225 10.5678 26.6838 5.69246C28.0829 4.75296 30.6868 3.49196 32.2463 2.99834C36.2193 1.74109 39.966 1.54759 44.0275 2.38996L45.3088 2.65571V3.88259V5.10959L44.6727 4.92071C42.767 4.35484 39.9999 4.08834 37.7738 4.25634C29.6247 4.87146 22.5053 10.4056 19.8744 18.1701C17.9838 23.75 18.7245 30.2582 21.8213 35.2756C23.115 37.3718 25.1415 39.6193 26.9963 41.0152C31.9459 44.7403 38.5023 46.0165 44.5774 44.4376C50.2223 42.9703 55.1499 38.856 57.7423 33.445C59.1354 30.5375 59.6988 27.9762 59.6967 24.5606C59.6937 19.8622 58.0928 15.3458 55.17 11.7898L54.4338 10.894V9.31109V7.72821L55.2333 8.45684C56.8294 9.91159 58.4828 12.2 59.7335 14.6856C62.7794 20.738 62.7828 28.3338 59.7425 34.5627C56.4273 41.3551 50.2434 45.9095 42.6838 47.1265C42.1682 47.2096 41.6492 47.3283 41.5304 47.3906C40.9704 47.6842 40.9589 48.595 41.5105 48.9565C41.7767 49.1307 41.9389 49.1372 42.7809 49.0065C48.0204 48.1935 52.5042 46.0215 56.2344 42.4895C64.0824 35.0586 66.149 23.2941 61.3053 13.6231C59.786 10.5898 57.6643 7.87609 55.2775 5.91359L54.4338 5.21971V3.32571C54.4338 1.14571 54.3123 0.756714 53.4833 0.281339C53.0163 0.013714 52.8714 0.00208906 49.96 8.90559e-05C47.2064 -0.00166094 46.8799 0.0204641 46.4517 0.238964C46.192 0.371464 45.9154 0.557089 45.837 0.651589C45.7169 0.796339 45.4722 0.778464 44.2829 0.538214C43.5065 0.381339 42.3169 0.195714 41.6393 0.125589C40.4787 0.00546405 37.9973 -0.0221609 37.3088 0.0772141ZM52.5879 12.3071L52.6213 22.7412L52.8955 23.0155C53.2268 23.3466 53.858 23.3773 54.1585 23.0771C54.3484 22.8872 54.378 22.3857 54.4338 18.4L54.4963 13.9356L54.9735 14.6856C57.9579 19.3751 58.6707 25.4061 56.8663 30.7011C56.4682 31.8693 55.4834 33.889 54.9073 34.7187L54.4963 35.3106L54.4338 30.7692C54.3744 26.4568 54.359 26.2187 54.1287 26.0505C53.7898 25.8028 53.2654 25.8295 52.9164 26.112L52.6213 26.3508L52.5864 32.0412L52.5515 37.7315L51.8989 38.3187C50.5678 39.5163 47.804 41.3731 47.3525 41.3731C47.2115 41.3731 47.1838 38.1315 47.1838 21.7065C47.1838 10.8897 47.2213 2.00221 47.2672 1.95646C47.3129 1.91059 48.5214 1.87309 49.9525 1.87309H52.5545L52.5879 12.3071ZM43.1838 6.48159C45.6928 7.07884 45.6728 7.09709 42.4943 7.11071C39.3393 7.12434 39.0563 7.18209 38.5003 7.92584C38.2664 8.23871 38.2413 8.49984 38.1838 11.2256L38.1213 14.1856L35.1153 14.2481C30.8275 14.3372 31.0234 14.1442 30.9338 18.3671L30.8713 21.3106L27.8488 21.3731C25.0432 21.4311 24.801 21.4542 24.4738 21.6945C23.676 22.2803 23.6847 22.2045 23.68 28.7481C23.6753 35.5345 23.7739 35.188 22.5587 32.6856C21.1709 29.8281 20.7449 27.9371 20.7565 24.6856C20.7632 22.8507 20.8163 22.1935 21.0447 21.1231C22.6869 13.4283 28.4382 7.74884 35.9963 6.35809C37.7239 6.04021 41.61 6.10696 43.1838 6.48159ZM45.278 25.6457L45.2463 42.2932L44.1838 42.588C43.2592 42.8446 40.9192 43.2385 40.2775 43.2456C40.0703 43.248 40.0588 42.3502 40.0588 26.1231V8.99809H42.6843H45.3097L45.278 25.6457ZM38.153 29.6543L38.1213 43.1856L37.4963 43.1467C36.5618 43.0887 35.0007 42.7822 33.84 42.429L32.8088 42.1151V29.1191V16.1231H35.4968H38.1849L38.153 29.6543ZM30.9338 32.26V41.272L30.215 40.8685C28.9639 40.1661 27.7308 39.2577 26.6278 38.2257L25.5588 37.2256V30.2368V23.2481H28.2463H30.9338V32.26ZM18.7202 45.2257C19.8002 46.3133 20.6838 47.2787 20.6838 47.371C20.6838 47.4632 20.0663 48.1623 19.3117 48.9246L17.9394 50.3106L15.7494 48.1248L13.5595 45.939L14.9008 44.5936C15.7383 43.7533 16.3387 43.2481 16.4993 43.2481C16.6653 43.2481 17.4525 43.9491 18.7202 45.2257ZM14.4054 49.5321L16.5618 51.6912L15.9014 52.3433L15.241 52.9955L13.0592 50.811L10.8773 48.6265L11.4947 47.9998C11.8342 47.6551 12.1428 47.3731 12.1804 47.3731C12.2182 47.3731 13.2193 48.3447 14.4054 49.5321ZM11.7787 52.1553L13.9333 54.3127L10.1523 58.087C8.01653 60.219 6.21053 61.9212 6.0019 61.9988C5.2094 62.2938 4.81953 62.0866 3.34003 60.5836C1.89378 59.1142 1.70441 58.7763 1.87403 57.9668C1.94028 57.6505 2.79166 56.7246 5.72491 53.7793C7.79615 51.6997 9.52078 49.9981 9.5574 49.9981C9.59403 49.9981 10.5935 50.9688 11.7787 52.1553Z" fill="black"/>
</svg>
