<svg width="24" height="24" viewBox="0 0 24 24" fill="none" xmlns="http://www.w3.org/2000/svg">
<path d="M22.6616 5.92335C22.4564 5.55492 22.1625 5.24789 21.8086 5.0322C21.4548 4.81652 21.053 4.69955 20.6425 4.6927H5.43974L4.75086 1.91141C4.68126 1.64293 4.52598 1.40677 4.31031 1.2414C4.09464 1.07604 3.83129 0.991205 3.56315 1.00072H1.18772C0.872714 1.00072 0.570614 1.13038 0.347874 1.36117C0.125134 1.59197 0 1.90499 0 2.23138C0 2.55777 0.125134 2.87079 0.347874 3.10159C0.570614 3.33238 0.872714 3.46204 1.18772 3.46204H2.66048L5.93858 16.0886C6.00818 16.3571 6.16346 16.5932 6.37913 16.7586C6.5948 16.924 6.85815 17.0088 7.12629 16.9993H17.8157C18.0351 16.9986 18.2499 16.935 18.4365 16.8155C18.6231 16.696 18.7741 16.5254 18.8728 16.3224L22.7685 8.2493C22.9374 7.88258 23.016 7.47825 22.9973 7.0724C22.9787 6.66655 22.8633 6.27179 22.6616 5.92335Z" fill="black"/>
<path d="M7 23C8.10457 23 9 22.1046 9 21C9 19.8954 8.10457 19 7 19C5.89543 19 5 19.8954 5 21C5 22.1046 5.89543 23 7 23Z" fill="black"/>
<path d="M18 23C19.1046 23 20 22.1046 20 21C20 19.8954 19.1046 19 18 19C16.8954 19 16 19.8954 16 21C16 22.1046 16.8954 23 18 23Z" fill="black"/>
</svg>
