<svg width="54" height="40" viewBox="0 0 54 40" fill="none" xmlns="http://www.w3.org/2000/svg">
<path fill-rule="evenodd" clip-rule="evenodd" d="M0.672104 0.103201C0.549843 0.15259 0.34839 0.321924 0.224549 0.479358C0.00498422 0.758421 -0.000597053 0.850565 3.47886e-05 4.20017C0.00035071 6.08917 0.0466858 7.91614 0.103025 8.26007C0.318904 9.57831 1.22518 10.978 2.34343 11.7203C2.85428 12.0593 3.85343 12.4502 4.55393 12.5851L4.84353 12.6408V15.825C4.84353 19.2012 4.97084 20.8445 5.37322 22.6605C6.64406 28.396 10.1494 33.3856 15.1636 36.5958C16.1143 37.2044 18.0976 38.1999 19.1126 38.5781C27.1433 41.5694 36.0763 39.7606 42.1641 33.9101C45.4454 30.7568 47.585 26.9834 48.5428 22.6605C48.9452 20.8445 49.0725 19.2012 49.0725 15.825V12.6408L49.3621 12.5851C50.0626 12.4502 51.0617 12.0593 51.5726 11.7203C52.7106 10.9649 53.609 9.55861 53.8202 8.20173C53.8792 7.82263 53.9118 6.01682 53.8945 4.07128L53.8639 0.614361L53.52 0.307181L53.1761 0L27.0353 0.00663472C12.6578 0.0103205 0.794471 0.0538122 0.672104 0.103201ZM51.8105 4.21039V6.31473L43.3773 6.34285L34.944 6.37107L34.6253 6.72775C34.3572 7.02787 34.3163 7.14403 34.3674 7.45932C34.4009 7.6654 34.5493 7.9551 34.6971 8.10295L34.9661 8.37191L43.2829 8.40013C47.8572 8.41561 51.5998 8.46668 51.5998 8.51365C51.5998 8.72774 50.91 9.60748 50.5129 9.89981C49.5937 10.5764 51.2073 10.5353 26.7434 10.5053L4.47495 10.478L3.98538 10.2517C3.35954 9.96247 2.67378 9.27671 2.3845 8.65087C2.17241 8.19194 2.1562 7.97164 2.12597 5.13372L2.09364 2.10614H26.9521H51.8105V4.21039ZM30.7899 6.42162C30.4584 6.55557 30.1172 7.04367 30.1172 7.38402C30.1172 7.80557 30.6012 8.31146 31.0769 8.38697C31.3975 8.43794 31.5129 8.39771 31.8116 8.13086C32.1074 7.86654 32.166 7.74122 32.166 7.37149C32.166 7.00502 32.107 6.87613 31.8243 6.6236C31.4784 6.31442 31.1931 6.25871 30.7899 6.42162ZM46.9396 16.4016C46.8972 19.6834 46.8621 20.3176 46.6649 21.3464C45.7103 26.3294 43.1035 30.6644 39.2516 33.6737L38.5418 34.2284L38.5413 29.8827C38.541 26.4858 38.5056 25.3185 38.3795 24.5365C37.6095 19.7633 34.0268 16.0064 29.2748 14.989C28.056 14.728 25.86 14.728 24.6412 14.989C19.8892 16.0064 16.3065 19.7633 15.5365 24.5365C15.4103 25.3185 15.375 26.4858 15.3746 29.8827L15.3742 34.2284L14.6644 33.6737C10.8125 30.6644 8.20566 26.3294 7.25105 21.3464C7.05392 20.3176 7.01875 19.6834 6.97641 16.4016L6.92787 12.6368H26.958H46.9881L46.9396 16.4016ZM29.3274 17.1605C32.5671 18.0062 35.218 20.6514 36.139 23.9573C36.3651 24.7687 36.3751 24.9981 36.4107 30.179L36.4477 35.5583L35.4675 36.0085C30.0003 38.52 23.9157 38.52 18.4485 36.0085L17.4683 35.5583L17.5053 30.179C17.5409 24.9981 17.5509 24.7687 17.777 23.9573C18.7699 20.3937 21.6816 17.6844 25.2451 17.0087C26.3454 16.8001 28.2124 16.8694 29.3274 17.1605ZM25.431 19.1275C25.0256 19.2128 24.2437 19.4996 23.6935 19.7648C22.8521 20.1703 22.5489 20.3911 21.7856 21.1544C21.0217 21.9183 20.802 22.2201 20.3966 23.0622C19.3266 25.2853 19.3266 27.3682 20.3966 29.5913C20.802 30.4334 21.0217 30.7352 21.7856 31.4991C22.5495 32.263 22.8513 32.4828 23.6935 32.8881C24.7817 33.4119 25.9356 33.6982 26.958 33.6982C27.9804 33.6982 29.1343 33.4119 30.2225 32.8881C31.0647 32.4828 31.3665 32.263 32.1304 31.4991C32.8943 30.7352 33.114 30.4334 33.5194 29.5913C34.5894 27.3682 34.5894 25.2853 33.5194 23.0622C33.114 22.2201 32.8943 21.9183 32.1304 21.1544C31.3665 20.3905 31.0647 20.1707 30.2225 19.7654C28.6125 18.9904 27.0631 18.7841 25.431 19.1275ZM28.1476 21.2182C30.9842 21.957 32.7679 24.8237 32.0665 27.5164C31.5591 29.4648 30.096 30.9278 28.1476 31.4353C24.5065 32.3837 20.9011 28.7783 21.8494 25.1371C22.5883 22.3008 25.4552 20.5169 28.1476 21.2182ZM25.9567 23.3504C23.7361 24.1454 23.0964 26.888 24.7465 28.5382C25.3929 29.1846 25.9997 29.429 26.958 29.429C27.9163 29.429 28.5231 29.1846 29.1694 28.5382C29.8158 27.8918 30.0602 27.285 30.0602 26.3268C30.0602 25.3685 29.8158 24.7617 29.1694 24.1153C28.3323 23.2781 27.0268 22.9672 25.9567 23.3504ZM27.6927 25.6448C28.0666 26.0184 28.0547 26.647 27.6664 27.0352C27.0306 27.671 25.9623 27.2323 25.9623 26.3352C25.9623 25.3954 27.0207 24.9731 27.6927 25.6448Z" fill="white"/>
</svg>
