<svg width="64" height="68" viewBox="0 0 64 68" fill="none" xmlns="http://www.w3.org/2000/svg">
<path fill-rule="evenodd" clip-rule="evenodd" d="M0.798059 10.1221C0.652885 10.1806 0.41368 10.381 0.266631 10.5673C0.00591828 10.8976 -0.000708944 11.0067 4.13082e-05 14.9712C0.000416434 17.2069 0.0554349 19.3692 0.122332 19.7763C0.378668 21.3365 1.45478 22.9932 2.7826 23.8716C3.38918 24.273 4.57558 24.7356 5.40736 24.8953L5.75122 24.9612V28.7299C5.75122 32.7257 5.9024 34.6707 6.38018 36.8201C7.88919 43.6085 12.0515 49.5139 18.0053 53.3133C19.1342 54.0337 21.4891 55.2119 22.6944 55.6595C32.2301 59.2 42.8372 57.0591 50.0658 50.1347C53.962 46.4026 56.5026 41.9366 57.6399 36.8201C58.1177 34.6707 58.2688 32.7257 58.2688 28.7299V24.9612L58.6127 24.8953C59.4445 24.7356 60.6309 24.273 61.2375 23.8716C62.5888 22.9776 63.6555 21.3132 63.9064 19.7073C63.9764 19.2586 64.015 17.1213 63.9945 14.8186L63.9582 10.7271L63.5499 10.3636L63.1415 10L32.1018 10.0079C15.03 10.0122 0.943358 10.0637 0.798059 10.1221ZM61.5199 14.9832V17.4739L51.5063 17.5072L41.4926 17.5406L41.1142 17.9627C40.7958 18.3179 40.7473 18.4554 40.808 18.8286C40.8477 19.0725 41.0239 19.4154 41.1995 19.5903L41.5188 19.9087L51.3943 19.9421C56.8259 19.9604 61.2698 20.0208 61.2698 20.0764C61.2698 20.3298 60.4507 21.371 59.9792 21.717C58.8878 22.5178 60.8037 22.4692 31.7552 22.4337L5.31357 22.4014L4.73225 22.1336C3.98913 21.7912 3.17486 20.9796 2.83137 20.2388C2.57953 19.6957 2.56028 19.4349 2.52439 16.0761L2.486 12.4927H32.003H61.5199V14.9832ZM36.5601 17.6004C36.1664 17.7589 35.7613 18.3366 35.7613 18.7394C35.7613 19.2384 36.336 19.8371 36.9008 19.9265C37.2815 19.9868 37.4186 19.9392 37.7732 19.6234C38.1245 19.3105 38.194 19.1622 38.194 18.7246C38.194 18.2909 38.124 18.1383 37.7883 17.8394C37.3776 17.4735 37.0388 17.4076 36.5601 17.6004ZM55.7362 29.4123C55.686 33.2965 55.6442 34.0471 55.4101 35.2647C54.2766 41.1624 51.1812 46.2931 46.6076 49.8549L45.7646 50.5114L45.7641 45.368C45.7638 41.3475 45.7218 39.9661 45.572 39.0405C44.6576 33.3911 40.4036 28.9445 34.761 27.7404C33.3138 27.4315 30.7062 27.4315 29.2591 27.7404C23.6165 28.9445 19.3624 33.3911 18.4481 39.0405C18.2983 39.9661 18.2563 41.3475 18.2559 45.368L18.2554 50.5114L17.4125 49.8549C12.8388 46.2931 9.74343 41.1624 8.60993 35.2647C8.37585 34.0471 8.33409 33.2965 8.28382 29.4123L8.22618 24.9565H32.01H55.7939L55.7362 29.4123ZM34.8235 30.3105C38.6703 31.3115 41.8179 34.4423 42.9116 38.355C43.18 39.3153 43.1919 39.5868 43.2342 45.7187L43.2782 52.0854L42.1143 52.6182C35.6225 55.5908 28.3976 55.5908 21.9058 52.6182L20.7419 52.0854L20.7859 45.7187C20.8282 39.5868 20.84 39.3153 21.1085 38.355C22.2874 34.1371 25.7448 30.9306 29.9761 30.1308C31.2827 29.8839 33.4995 29.966 34.8235 30.3105ZM30.1969 32.6386C29.7155 32.7396 28.7871 33.079 28.1337 33.3928C27.1346 33.8728 26.7746 34.1341 25.8683 35.0375C24.9613 35.9416 24.7003 36.2988 24.219 37.2956C22.9485 39.9267 22.9485 42.392 24.219 45.0231C24.7003 46.0198 24.9613 46.377 25.8683 47.2811C26.7754 48.1853 27.1338 48.4454 28.1337 48.9251C29.4259 49.5451 30.796 49.8839 32.01 49.8839C33.2241 49.8839 34.5941 49.5451 35.8863 48.9251C36.8863 48.4454 37.2447 48.1853 38.1517 47.2811C39.0588 46.377 39.3197 46.0198 39.801 45.0231C41.0716 42.392 41.0716 39.9267 39.801 37.2956C39.3197 36.2988 39.0588 35.9416 38.1517 35.0375C37.2447 34.1334 36.8863 33.8733 35.8863 33.3936C33.9746 32.4763 32.1348 32.2322 30.1969 32.6386ZM33.4226 35.1131C36.7908 35.9875 38.9087 39.3804 38.0759 42.5674C37.4734 44.8734 35.7362 46.605 33.4226 47.2056C29.0991 48.3281 24.818 44.0609 25.9441 39.7513C26.8214 36.3943 30.2256 34.283 33.4226 35.1131ZM30.8211 37.6366C28.1844 38.5776 27.4247 41.8236 29.3841 43.7767C30.1517 44.5417 30.8721 44.831 32.01 44.831C33.1479 44.831 33.8684 44.5417 34.6359 43.7767C35.4034 43.0117 35.6936 42.2935 35.6936 41.1593C35.6936 40.0251 35.4034 39.307 34.6359 38.5419C33.6418 37.5511 32.0917 37.1831 30.8211 37.6366ZM32.8824 40.3522C33.3263 40.7944 33.3122 41.5384 32.8512 41.9978C32.0962 42.7503 30.8278 42.2311 30.8278 41.1693C30.8278 40.057 32.0844 39.5572 32.8824 40.3522Z" fill="#121212"/>
</svg>
