<svg width="65" height="68" viewBox="0 0 65 68" fill="none" xmlns="http://www.w3.org/2000/svg">
<path fill-rule="evenodd" clip-rule="evenodd" d="M12.2347 2.13237C11.4448 2.33198 10.5016 2.86914 9.85734 3.48655L9.2536 4.065H5.96912C3.76745 4.065 2.50953 4.11674 2.15353 4.2219C1.44476 4.43132 0.375868 5.50022 0.16645 6.20898C-0.0554834 6.9602 -0.0554834 17.6858 0.16645 18.437C0.375868 19.1458 1.44476 20.2147 2.15353 20.4241C2.52927 20.5351 4.10513 20.581 7.54059 20.581H12.3965V25.8557V31.1302L12.0051 31.2924C11.1377 31.6516 10.332 32.9557 10.332 34.0003C10.332 35.0448 11.1377 36.3489 12.0051 36.7081L12.3965 36.8703V44.1927V51.5152L11.467 51.6067C8.92922 51.8569 6.3095 53.3831 5.21506 55.2492C4.96757 55.6713 4.71932 55.8727 4.0761 56.1738C2.91869 56.7153 2.16463 57.4581 1.58825 58.6246C1.13289 59.5459 1.10631 59.6678 1.10631 60.8388C1.10631 62.0097 1.13289 62.1316 1.58825 63.0529C2.16863 64.2274 2.91572 64.9588 4.11532 65.5271L4.97725 65.9355H13.4288H21.8803L22.7423 65.5271C23.9091 64.9743 24.6834 64.2289 25.2339 63.1288C25.4829 62.6309 25.6868 62.1442 25.6868 62.0473C25.6868 61.9098 25.9753 61.871 26.9944 61.871C27.7136 61.871 28.5409 61.8004 28.8331 61.7141C29.5418 61.5047 30.6107 60.4358 30.8201 59.727C30.9333 59.3441 30.9771 57.5536 30.9771 53.3077V47.4195H32.0093H33.0415V54.34C33.0415 59.3963 33.0839 61.4035 33.1985 61.7915C33.4079 62.5003 34.4768 63.5692 35.1855 63.7786C35.5613 63.8896 37.1371 63.9355 40.5726 63.9355H45.4286V62.9033V61.871H40.5841H35.7395L35.4228 61.5542L35.1061 61.2376V54.1441V47.0507L35.848 46.8369C39.338 45.8314 42.5419 43.0508 44.1402 39.6401C44.6951 38.4557 45.1257 37.0148 45.2695 35.8602L45.3646 35.097L46.5403 35.0601L47.716 35.0233L47.8777 35.4135C48.0609 35.8561 48.8751 36.6397 49.2874 36.7706C49.5591 36.8569 49.5616 36.8916 49.5275 40.1064L49.493 43.355L49.0414 43.3879C48.0389 43.4612 46.0737 43.8598 45.0101 44.2057C42.4642 45.0337 40.1596 46.4292 38.0935 48.3937L36.7801 49.6425L37.2566 50.1761C37.5187 50.4697 38.449 51.4556 39.324 52.3672L40.9149 54.0246L41.9465 53.0542C43.6798 51.4236 45.3465 50.4512 47.4558 49.8399C48.3183 49.5898 48.7626 49.5485 50.5898 49.5485C52.417 49.5485 52.8613 49.5898 53.7238 49.8399C55.8331 50.4512 57.4998 51.4236 59.2331 53.0542L60.2647 54.0246L61.8556 52.3672C62.7306 51.4556 63.6609 50.4697 63.923 50.1761L64.3995 49.6425L63.0941 48.4012C60.4028 45.8422 57.2334 44.2124 53.8156 43.6299C53.1414 43.515 52.3866 43.4061 52.1382 43.3879L51.6866 43.355L51.6521 40.1135L51.6177 36.8721L52.0113 36.709C52.8808 36.3489 53.6866 35.0459 53.6866 34.0003C53.6866 32.9557 52.8809 31.6516 52.0135 31.2924L51.6221 31.1302V26.8288V22.5274L52.2307 21.9091C52.8032 21.3273 52.886 21.1493 53.6284 18.9036L54.4175 16.5165L58.0842 16.452C61.3302 16.3948 61.8069 16.3597 62.2382 16.1454C62.8767 15.8281 63.6667 14.9196 63.8573 14.2834C64.07 13.5738 64.0685 4.87403 63.8556 4.16358C63.7712 3.88204 63.4513 3.37249 63.1444 3.0312C62.1669 1.94399 62.8542 2.0005 50.6141 2.0005C42.5364 2.0005 39.713 2.03973 39.3145 2.1574C38.6058 2.36682 37.5369 3.43572 37.3275 4.14448C37.2379 4.44758 37.1706 5.43067 37.1706 6.43479V8.194H36.4436C36.0437 8.194 35.4777 8.26458 35.1855 8.3509C34.4768 8.56032 33.4079 9.62922 33.1985 10.338C33.0875 10.7137 33.0415 12.2896 33.0415 15.725V20.581H32.0093H30.9771V17.2734C30.9771 15.0912 30.9248 13.7916 30.8236 13.4538C30.7392 13.1723 30.4192 12.6627 30.1124 12.3215C29.4578 11.5935 28.7199 11.2908 27.5993 11.2908H26.8481V9.01541C26.8481 7.60613 26.7883 6.53789 26.6911 6.20898C26.4817 5.50022 25.4128 4.43132 24.7041 4.2219C24.3481 4.11674 23.0901 4.065 20.8885 4.065H17.604L16.9819 3.46901C16.0737 2.59869 14.959 2.1165 13.719 2.05753C13.1691 2.03134 12.5012 2.06502 12.2347 2.13237ZM14.3816 4.2219C15.0903 4.43132 16.1592 5.50022 16.3686 6.20898C16.7261 7.41878 16.4741 8.38329 15.5622 9.29515C14.2568 10.6006 12.6008 10.6006 11.2954 9.29515C9.98999 7.98974 9.98999 6.33518 11.2954 5.02693C12.2006 4.11984 13.1755 3.86552 14.3816 4.2219ZM61.6278 4.38177L61.9446 4.69842V9.22625V13.7541L61.6278 14.0707L61.3111 14.3875H57.1215H52.9318L51.925 17.4172C51.3712 19.0835 50.8442 20.4752 50.7539 20.5099C50.6637 20.5445 50.5159 20.5445 50.4257 20.5099C50.3354 20.4752 49.8084 19.0835 49.2546 17.4172L48.2478 14.3875H44.0581H39.8685L39.5518 14.0707L39.2351 13.7541V9.22625V4.69842L39.5518 4.38177L39.8685 4.065H50.5898H61.3111L61.6278 4.38177ZM8.3371 7.25891C8.34135 8.20574 8.39813 8.50884 8.68987 9.14057C8.88109 9.55476 9.22573 10.131 9.45554 10.4213C9.68547 10.7115 9.81399 10.9688 9.74121 10.9931C9.66844 11.0173 9.24199 11.2538 8.79348 11.5187C6.50717 12.8691 4.78358 15.2742 4.35661 17.7101L4.21519 18.5165H3.46126C2.83301 18.5165 2.65469 18.4637 2.39082 18.1997L2.07405 17.8831V12.323V6.76292L2.39082 6.44627L2.70746 6.1295L5.51983 6.12989L8.33206 6.13015L8.3371 7.25891ZM24.4668 6.44627L24.7836 6.76292V12.323V17.8831L24.4668 18.1997C24.202 18.4646 24.0252 18.5165 23.3867 18.5165H22.6233L22.5345 17.8475C22.3109 16.1625 21.1116 14.024 19.6462 12.6978C18.9886 12.1029 17.5624 11.1417 17.1164 10.9931C17.0436 10.9688 17.1721 10.7115 17.4021 10.4213C17.6319 10.131 17.9765 9.55476 18.1677 9.14057C18.4595 8.50884 18.5162 8.20574 18.5205 7.25891L18.5255 6.13015L21.3378 6.12989L24.1501 6.1295L24.4668 6.44627ZM41.2995 7.16175V8.194H42.3318H43.3641V7.16175V6.1295H42.3318H41.2995V7.16175ZM45.4286 7.16175V8.194H52.6543H59.8801V7.16175V6.1295H52.6543H45.4286V7.16175ZM37.1706 12.0177C37.1706 14.0658 37.2945 14.586 37.9641 15.3466C38.856 16.3597 38.945 16.379 43.0954 16.452L46.7621 16.5165L47.5512 18.9036C48.2936 21.1493 48.3764 21.3273 48.9489 21.9091L49.5576 22.5274V26.8358C49.5576 31.1061 49.5551 31.1449 49.2852 31.2306C48.8747 31.3609 48.0605 32.1454 47.8777 32.587L47.716 32.9772L46.5403 32.9404L45.3646 32.9035L45.2695 32.1403C45.1262 30.9898 44.6958 29.546 44.1468 28.3744C42.5617 24.9921 39.4726 22.2692 36.036 21.2254L35.1061 20.9429V15.9174V10.8919L35.4228 10.5753C35.6828 10.3151 35.8673 10.2585 36.4551 10.2585H37.1706V12.0177ZM41.2995 11.2908V12.323H42.3318H43.3641V11.2908V10.2585H42.3318H41.2995V11.2908ZM45.4286 11.2908V12.323H46.4608H47.493V11.2908V10.2585H46.4608H45.4286V11.2908ZM49.5576 11.2908V12.323H50.5898H51.6221V11.2908V10.2585H50.5898H49.5576V11.2908ZM53.6866 11.2908V12.323H54.7188H55.7511V11.2908V10.2585H54.7188H53.6866V11.2908ZM57.8156 11.2908V12.323H58.8478H59.8801V11.2908V10.2585H58.8478H57.8156V11.2908ZM15.7668 12.7414C17.4273 13.347 18.5547 14.2413 19.4988 15.7022C19.9606 16.4165 20.5255 17.8662 20.5255 18.3365C20.5255 18.4882 19.4128 18.5165 13.4288 18.5165C5.33209 18.5165 6.12524 18.6631 6.60085 17.2547C7.41633 14.8399 9.51102 12.9993 12.074 12.4456C12.9799 12.2498 14.8239 12.3976 15.7668 12.7414ZM28.5958 13.672L28.9125 13.9887V17.4658V20.9429L28.0016 21.2197C26.819 21.5788 24.9175 22.557 23.942 23.3079C22.9451 24.0754 21.4983 25.6046 20.8685 26.5564C19.8124 28.1526 18.969 30.3745 18.7491 32.1403L18.654 32.9035L17.4783 32.9404L16.3026 32.9772L16.1409 32.587C15.9581 32.1454 15.1439 31.3609 14.7334 31.2306C14.4621 31.1445 14.461 31.1231 14.461 25.8626V20.581H19.317C22.7525 20.581 24.3283 20.5351 24.7041 20.4241C25.4128 20.2147 26.4817 19.1458 26.6911 18.437C26.7883 18.1081 26.8481 17.0399 26.8481 15.6306V13.3553H27.5635C28.1513 13.3553 28.3358 13.4119 28.5958 13.672ZM32.6383 22.8307C33.1377 23.089 33.8756 23.9368 34.2584 24.6923C34.5244 25.2174 35.1058 26.6233 35.1059 26.7422C35.106 26.7599 33.7125 26.7745 32.0093 26.7745C30.3061 26.7745 28.9126 26.7599 28.9127 26.7422C28.9128 26.6242 29.4931 25.2195 29.7554 24.7017C30.3323 23.5634 31.3254 22.6471 31.9835 22.646C32.1466 22.6458 32.4413 22.7289 32.6383 22.8307ZM27.7358 24.1841C27.5257 24.6045 27.2202 25.3448 27.057 25.8292L26.76 26.71L25.0621 26.746C24.1282 26.7657 23.3642 26.7344 23.3642 26.6761C23.3642 26.5441 24.2587 25.6877 25.0815 25.0319C25.706 24.5343 27.6859 23.4305 27.9668 23.4234C28.0551 23.4212 27.9593 23.737 27.7358 24.1841ZM37.2791 23.9988C38.3845 24.5717 40.1278 25.9194 40.499 26.4881L40.691 26.7822L38.9748 26.7461L37.2586 26.71L36.9617 25.8292C36.7984 25.3448 36.4929 24.6045 36.2828 24.1841C36.0728 23.7637 35.9596 23.4197 36.0313 23.4197C36.1031 23.4197 36.6646 23.6802 37.2791 23.9988ZM26.2003 29.0648C26.1989 29.1891 26.1461 29.668 26.083 30.1293C26.0198 30.5906 25.929 31.4181 25.881 31.968L25.7937 32.968H23.2437H20.6936L20.8069 32.2261C20.9388 31.363 21.0695 30.9049 21.5247 29.71L21.8566 28.839H24.0298C26.0144 28.839 26.2026 28.8586 26.2003 29.0648ZM35.6702 29.0648C35.7537 29.3533 35.9706 30.9707 36.0768 32.097L36.1588 32.968H32.0093H27.8598L27.9418 32.097C28.048 30.9707 28.2649 29.3533 28.3484 29.0648C28.4087 28.8567 28.6959 28.839 32.0093 28.839C35.3227 28.839 35.6099 28.8567 35.6702 29.0648ZM42.4835 29.7104C42.9363 30.8519 43.0748 31.3303 43.2117 32.2261L43.325 32.968H40.7749H38.2249L38.1376 31.968C38.0896 31.4181 37.9988 30.5906 37.9356 30.1293C37.74 28.7 37.5201 28.839 39.977 28.8394L42.1383 28.8399L42.4835 29.7104ZM14.1443 33.2848C14.7844 33.9248 14.3309 35.0325 13.4288 35.0325C12.8984 35.0325 12.3965 34.5307 12.3965 34.0003C12.3965 33.7489 12.5136 33.4844 12.7133 33.2848C12.9129 33.085 13.1774 32.968 13.4288 32.968C13.6802 32.968 13.9447 33.085 14.1443 33.2848ZM51.3053 33.2848C51.505 33.4844 51.6221 33.7489 51.6221 34.0003C51.6221 34.2516 51.505 34.5161 51.3053 34.7157C51.1057 34.9155 50.8412 35.0325 50.5898 35.0325C50.3384 35.0325 50.0739 34.9155 49.8743 34.7157C49.2342 34.0757 49.6877 32.968 50.5898 32.968C50.8412 32.968 51.1057 33.085 51.3053 33.2848ZM18.7491 35.8602C19.286 40.1716 22.296 44.2283 26.3671 46.1279C26.951 46.4003 27.7626 46.7194 28.1706 46.8369L28.9125 47.0507V53.1118V59.1731L28.5958 59.4897C28.3016 59.7841 28.1871 59.8065 26.9829 59.8065C25.9735 59.8065 25.6868 59.7675 25.6868 59.6302C25.6868 59.5333 25.4829 59.0466 25.2339 58.5487C24.3904 56.8628 22.8384 55.8434 20.9142 55.7114L19.8837 55.6409L19.2747 54.8113C18.3281 53.522 16.7311 52.4428 15.0094 51.9293L14.461 51.7657V44.318V36.8703L14.8467 36.7104C15.2865 36.5284 16.0689 35.7129 16.1999 35.3001C16.2826 35.0395 16.3581 35.0253 17.471 35.0601L18.654 35.097L18.7491 35.8602ZM25.881 36.0325C25.929 36.5824 26.0198 37.4099 26.083 37.8712C26.2786 39.3007 26.5001 39.1615 24.0298 39.1615H21.8566L21.5247 38.2905C21.0695 37.0956 20.9388 36.6375 20.8069 35.7744L20.6936 35.0325H23.2437H25.7937L25.881 36.0325ZM36.0768 35.9035C35.9706 37.0298 35.7537 38.6472 35.6702 38.9357C35.6099 39.1438 35.3227 39.1615 32.0093 39.1615C28.6959 39.1615 28.4087 39.1438 28.3484 38.9357C28.2649 38.6472 28.048 37.0298 27.9418 35.9035L27.8598 35.0325H32.0093H36.1588L36.0768 35.9035ZM43.2043 35.8133C43.0975 36.5188 42.7678 37.6028 42.3135 38.7421L42.1463 39.1615H39.981C37.5196 39.1615 37.74 39.3005 37.9356 37.8712C37.9988 37.4099 38.0896 36.5824 38.1376 36.0325L38.2249 35.0325H40.7736H43.3225L43.2043 35.8133ZM27.057 42.1713C27.2202 42.6557 27.5257 43.396 27.7358 43.8164C27.9458 44.2368 28.059 44.5808 27.9873 44.5808C27.9155 44.5808 27.354 44.3203 26.7395 44.0017C25.6341 43.4288 23.8908 42.0811 23.5196 41.5125L23.3276 41.2183L25.0438 41.2544L26.76 41.2905L27.057 42.1713ZM35.1061 41.2771C35.1061 41.4368 34.3173 43.2282 34.0347 43.7105C33.6343 44.3936 32.7854 45.1882 32.3351 45.3012C31.2959 45.5621 30.1791 44.4407 29.2815 42.2346C29.0785 41.7362 28.9125 41.3052 28.9125 41.2771C28.9125 41.249 30.3061 41.226 32.0093 41.226C33.7125 41.226 35.1061 41.249 35.1061 41.2771ZM40.4965 41.5163C40.1276 42.0815 38.3814 43.4305 37.2791 44.0017C36.6646 44.3203 36.1038 44.5808 36.0331 44.5808C35.9623 44.5808 36.0949 44.1888 36.3278 43.7099C36.5607 43.2309 36.8534 42.5195 36.9782 42.1292C37.1028 41.7389 37.2296 41.3761 37.2598 41.3228C37.29 41.2695 38.0733 41.226 39.0003 41.226H40.6859L40.4965 41.5163ZM52.9129 45.5415C55.8049 45.9773 58.907 47.3929 60.9122 49.1916L61.4927 49.7124L60.9122 50.3592C60.5929 50.7151 60.2842 51.012 60.2262 51.0192C60.1682 51.0264 59.7976 50.7692 59.4026 50.4475C57.0149 48.5025 53.8724 47.4195 50.616 47.4195C47.4031 47.4195 44.586 48.3463 42.0959 50.2227C41.505 50.668 40.9824 51.0264 40.9347 51.0192C40.8869 51.012 40.5867 50.7151 40.2674 50.3592L39.6869 49.7124L40.2674 49.1916C40.5867 48.9052 41.3275 48.3563 41.9139 47.9716C45.178 45.8304 49.0924 44.9655 52.9129 45.5415ZM48.7894 51.6866C47.669 51.8863 46.0276 52.502 45.0204 53.1004C44.5092 53.4041 43.6074 54.1169 43.0164 54.6842L41.9419 55.7157L42.6812 56.503C43.0878 56.9361 44.0479 57.9486 44.8148 58.753L46.2091 60.2155L46.974 59.5074C49.231 57.4177 51.9337 57.4039 54.166 59.4706L54.9632 60.2087L56.2969 58.814C57.0303 58.047 57.9912 57.0374 58.4322 56.5703L59.2339 55.7212L58.2344 54.7551C56.6522 53.2258 55.4154 52.5024 53.406 51.9313C52.309 51.6196 49.8855 51.4911 48.7894 51.6866ZM14.6443 53.9913C15.5116 54.2956 16.3088 54.7376 16.9237 55.2551C17.4846 55.7269 18.2531 56.9352 18.4581 57.667C18.5491 57.9921 18.6306 58.2574 18.6391 58.2565C18.6476 58.2555 19.0227 58.1394 19.4725 57.9984C20.9446 57.537 21.8024 57.7198 22.788 58.7053C23.6998 59.6172 23.9518 60.5817 23.5944 61.7915C23.385 62.5003 22.3161 63.5692 21.6073 63.7786C20.849 64.0026 6.0086 64.0026 5.25028 63.7786C4.54151 63.5692 3.47262 62.5003 3.2632 61.7915C2.71869 59.9484 3.87971 58.1012 5.77312 57.7984C6.23105 57.7252 6.29931 57.657 6.64021 56.9314C7.31646 55.492 8.91412 54.2547 10.6719 53.809C11.7043 53.5473 13.6306 53.6357 14.6443 53.9913ZM53.2349 54.0481C54.2644 54.3771 55.5878 55.081 56.0696 55.5554C56.3219 55.804 56.3189 55.8105 55.6224 56.5158C55.2367 56.9064 54.8776 57.2259 54.8245 57.2259C54.7713 57.2259 54.4499 57.0492 54.1104 56.8334C52.1308 55.5751 49.0488 55.5751 47.0692 56.8334C46.7297 57.0492 46.4083 57.2259 46.3551 57.2259C46.1338 57.2259 44.8864 55.8241 44.9771 55.6772C45.0296 55.5922 45.42 55.2982 45.8447 55.0237C47.9943 53.6343 50.7873 53.2655 53.2349 54.0481ZM49.5576 59.9751C48.9243 60.1748 47.8441 61.2932 47.65 61.9505C47.2925 63.1603 47.5445 64.1248 48.4564 65.0367C49.1247 65.7049 49.7782 66 50.5898 66C51.4014 66 52.055 65.7049 52.7232 65.0367C53.9841 63.7758 54.0218 62.1718 52.8219 60.8372C51.9868 59.9084 50.7804 59.5897 49.5576 59.9751ZM51.3053 62.1878C51.505 62.3874 51.6221 62.6519 51.6221 62.9033C51.6221 63.1546 51.505 63.4191 51.3053 63.6187C51.1057 63.8185 50.8412 63.9355 50.5898 63.9355C50.3384 63.9355 50.0739 63.8185 49.8743 63.6187C49.6746 63.4191 49.5576 63.1546 49.5576 62.9033C49.5576 62.6519 49.6746 62.3874 49.8743 62.1878C50.0739 61.988 50.3384 61.871 50.5898 61.871C50.8412 61.871 51.1057 61.988 51.3053 62.1878Z" fill="#121212"/>
</svg>
