<svg width="64" height="68" viewBox="0 0 64 68" fill="none" xmlns="http://www.w3.org/2000/svg">
<path fill-rule="evenodd" clip-rule="evenodd" d="M37.3088 2.07721C37.1369 2.10209 36.49 2.18484 35.8713 2.26121C35.2525 2.33759 34.0719 2.56896 33.2478 2.77534C23.8049 5.14034 16.6157 12.9577 14.9949 22.6231C14.7095 24.3247 14.6139 27.5818 14.8014 29.2148C15.003 30.97 15.483 33.125 16.0199 34.6856C16.9274 37.3233 18.701 40.4477 20.4192 42.4356C20.8352 42.9168 21.1774 43.3458 21.1797 43.389C21.1819 43.4322 20.758 43.8485 20.2378 44.3141L19.2917 45.1608L18.5815 44.46C17.483 43.376 16.55 43.1197 15.4963 43.6123C15.1565 43.7712 12.667 46.1847 7.73091 51.1408C-0.327095 59.2313 -0.0139699 58.8521 0.00628009 60.4981C0.0220301 61.7685 0.32878 62.2992 2.02703 63.994C3.26341 65.2278 3.6109 65.5028 4.21978 65.7291C5.08403 66.0505 5.79703 66.0698 6.63028 65.7946C7.18803 65.6103 7.94678 64.893 14.6614 58.2008C18.7398 54.1362 22.1494 50.67 22.2384 50.4981C22.7812 49.4507 22.5185 48.4051 21.4394 47.3162L20.684 46.5541L21.6133 45.6311L22.5425 44.7081L23.4569 45.4856C26.9954 48.4947 31.4373 50.4181 36.3415 51.065C37.5288 51.2215 37.748 51.2213 38.0533 51.0635C38.6345 50.7628 38.7418 50.0882 38.2775 49.6531C38.0588 49.4481 37.6768 49.3475 36.5588 49.2003C33.8692 48.8463 31.8844 48.2641 29.48 47.1237C26.8229 45.8636 24.7903 44.3778 22.6879 42.1593C19.4498 38.7423 17.3765 34.3505 16.752 29.5855C15.6204 20.9491 19.4225 12.5678 26.6838 7.69246C28.0829 6.75296 30.6868 5.49196 32.2463 4.99834C36.2193 3.74109 39.966 3.54759 44.0275 4.38996L45.3088 4.65571V5.88259V7.10959L44.6727 6.92071C42.767 6.35484 39.9999 6.08834 37.7738 6.25634C29.6247 6.87146 22.5053 12.4056 19.8744 20.1701C17.9838 25.75 18.7245 32.2582 21.8213 37.2756C23.115 39.3718 25.1415 41.6193 26.9963 43.0152C31.9459 46.7403 38.5023 48.0165 44.5774 46.4376C50.2223 44.9703 55.1499 40.856 57.7423 35.445C59.1354 32.5375 59.6988 29.9762 59.6967 26.5606C59.6937 21.8622 58.0928 17.3458 55.17 13.7898L54.4338 12.894V11.3111V9.72821L55.2333 10.4568C56.8294 11.9116 58.4828 14.2 59.7335 16.6856C62.7794 22.738 62.7828 30.3338 59.7425 36.5627C56.4273 43.3551 50.2434 47.9095 42.6838 49.1265C42.1682 49.2096 41.6492 49.3283 41.5304 49.3906C40.9704 49.6842 40.9589 50.595 41.5105 50.9565C41.7767 51.1307 41.9389 51.1372 42.7809 51.0065C48.0204 50.1935 52.5042 48.0215 56.2344 44.4895C64.0824 37.0586 66.149 25.2941 61.3053 15.6231C59.786 12.5898 57.6643 9.87609 55.2775 7.91359L54.4338 7.21971V5.32571C54.4338 3.14571 54.3123 2.75671 53.4833 2.28134C53.0163 2.01371 52.8714 2.00209 49.96 2.00009C47.2064 1.99834 46.8799 2.02046 46.4517 2.23896C46.192 2.37146 45.9154 2.55709 45.837 2.65159C45.7169 2.79634 45.4722 2.77846 44.2829 2.53821C43.5065 2.38134 42.3169 2.19571 41.6393 2.12559C40.4787 2.00546 37.9973 1.97784 37.3088 2.07721ZM52.5879 14.3071L52.6213 24.7412L52.8955 25.0155C53.2268 25.3466 53.858 25.3773 54.1585 25.0771C54.3484 24.8872 54.378 24.3857 54.4338 20.4L54.4963 15.9356L54.9735 16.6856C57.9579 21.3751 58.6707 27.4061 56.8663 32.7011C56.4682 33.8693 55.4834 35.889 54.9073 36.7187L54.4963 37.3106L54.4338 32.7692C54.3744 28.4568 54.359 28.2187 54.1287 28.0505C53.7898 27.8028 53.2654 27.8295 52.9164 28.112L52.6213 28.3508L52.5864 34.0412L52.5515 39.7315L51.8989 40.3187C50.5678 41.5163 47.804 43.3731 47.3525 43.3731C47.2115 43.3731 47.1838 40.1315 47.1838 23.7065C47.1838 12.8897 47.2213 4.00221 47.2672 3.95646C47.3129 3.91059 48.5214 3.87309 49.9525 3.87309H52.5545L52.5879 14.3071ZM43.1838 8.48159C45.6928 9.07884 45.6728 9.09709 42.4943 9.11071C39.3393 9.12434 39.0563 9.18209 38.5003 9.92584C38.2664 10.2387 38.2413 10.4998 38.1838 13.2256L38.1213 16.1856L35.1153 16.2481C30.8275 16.3372 31.0234 16.1442 30.9338 20.3671L30.8713 23.3106L27.8488 23.3731C25.0432 23.4311 24.801 23.4542 24.4738 23.6945C23.676 24.2803 23.6847 24.2045 23.68 30.7481C23.6753 37.5345 23.7739 37.188 22.5587 34.6856C21.1709 31.8281 20.7449 29.9371 20.7565 26.6856C20.7632 24.8507 20.8163 24.1935 21.0447 23.1231C22.6869 15.4283 28.4382 9.74884 35.9963 8.35809C37.7239 8.04021 41.61 8.10696 43.1838 8.48159ZM45.278 27.6457L45.2463 44.2932L44.1838 44.588C43.2592 44.8446 40.9192 45.2385 40.2775 45.2456C40.0703 45.248 40.0588 44.3502 40.0588 28.1231V10.9981H42.6843H45.3097L45.278 27.6457ZM38.153 31.6543L38.1213 45.1856L37.4963 45.1467C36.5618 45.0887 35.0007 44.7822 33.84 44.429L32.8088 44.1151V31.1191V18.1231H35.4968H38.1849L38.153 31.6543ZM30.9338 34.26V43.272L30.215 42.8685C28.9639 42.1661 27.7308 41.2577 26.6278 40.2257L25.5588 39.2256V32.2368V25.2481H28.2463H30.9338V34.26ZM18.7202 47.2257C19.8002 48.3133 20.6838 49.2787 20.6838 49.371C20.6838 49.4632 20.0663 50.1623 19.3117 50.9246L17.9394 52.3106L15.7494 50.1248L13.5595 47.939L14.9008 46.5936C15.7383 45.7533 16.3387 45.2481 16.4993 45.2481C16.6653 45.2481 17.4525 45.9491 18.7202 47.2257ZM14.4054 51.5321L16.5618 53.6912L15.9014 54.3433L15.241 54.9955L13.0592 52.811L10.8773 50.6265L11.4947 49.9998C11.8342 49.6551 12.1428 49.3731 12.1804 49.3731C12.2182 49.3731 13.2193 50.3447 14.4054 51.5321ZM11.7787 54.1553L13.9333 56.3127L10.1523 60.087C8.01653 62.219 6.21053 63.9212 6.0019 63.9988C5.2094 64.2938 4.81953 64.0866 3.34003 62.5836C1.89378 61.1142 1.70441 60.7763 1.87403 59.9668C1.94028 59.6505 2.79166 58.7246 5.72491 55.7793C7.79615 53.6997 9.52078 51.9981 9.5574 51.9981C9.59403 51.9981 10.5935 52.9688 11.7787 54.1553Z" fill="white"/>
</svg>
