<svg width="65" height="68" viewBox="0 0 65 68" fill="none" xmlns="http://www.w3.org/2000/svg">
<path fill-rule="evenodd" clip-rule="evenodd" d="M18.2518 2.19715C17.8053 2.49227 4.54912 15.7123 4.1175 16.2929C3.87525 16.6188 3.75513 16.9294 3.75513 17.2296C3.75513 17.659 4.29825 18.2221 15.9746 29.8984L28.194 42.1179H28.753H29.312L35.8164 35.6179L42.3207 29.1179H43.3867C45.1201 29.1179 46.7319 28.5688 48.3042 27.4425C49.0924 26.878 50.5432 25.4413 50.9357 24.8366L51.1589 24.4929H57.0761C63.4307 24.4929 63.4977 24.4865 63.827 23.8498C64.0924 23.3365 64.0924 7.39927 63.827 6.88602C63.5084 6.2699 63.3032 6.2429 58.9437 6.2429H54.8941L54.5434 6.5444C54.239 6.80615 54.1844 6.95902 54.1301 7.70065L54.0676 8.5554L52.0449 8.58965L50.0222 8.62402L49.7011 9.00552C49.5092 9.23365 49.3801 9.54115 49.3801 9.77027V10.1535L48.6614 10.0778C47.5417 9.9599 46.6911 9.60752 44.3567 8.2944C41.5239 6.70077 37.6839 4.8159 36.5051 4.44052C35.1124 3.99702 33.4124 3.82602 32.0564 3.99315C30.9041 4.13527 30.4375 4.27965 26.4426 5.73077L24.0676 6.59352L21.8801 4.43152C20.677 3.24252 19.5697 2.20727 19.4196 2.13127C19.0336 1.93565 18.6113 1.95952 18.2518 2.19715ZM20.2844 6.45952C21.0245 7.1974 21.6301 7.8374 21.6301 7.88165C21.6301 7.9259 21.3347 8.09565 20.9739 8.25877C20.4054 8.51565 20.1252 8.5554 18.8801 8.5554C17.635 8.5554 17.3549 8.51565 16.7864 8.25877C16.4255 8.09565 16.1301 7.92777 16.1301 7.88577C16.1301 7.79477 18.7856 5.1179 18.876 5.1179C18.9104 5.1179 19.5441 5.72165 20.2844 6.45952ZM35.3522 6.70502C36.2041 6.91665 40.7803 9.12077 42.8851 10.3331C45.566 11.8773 46.6194 12.3074 48.3134 12.5494L49.3176 12.6929L49.3504 17.6834L49.383 22.674L48.9235 23.3413C48.2114 24.3753 46.966 25.4383 45.776 26.0279C44.7836 26.5196 44.6469 26.5532 43.4471 26.5975C41.1094 26.684 39.3704 25.989 37.6926 24.2978L36.6926 23.2896L34.0676 22.4054C26.5014 19.8569 26.1408 19.7213 25.5543 19.205C24.9356 18.6605 24.6926 18.2654 24.5681 17.6023C24.3905 16.6551 25.0684 15.4126 25.9679 15.0368C26.7975 14.6901 27.3264 14.81 33.2205 16.6804C36.362 17.6773 39.0936 18.4929 39.2907 18.4929C39.8517 18.4929 40.3801 17.8884 40.3801 17.2468C40.3801 16.4269 40.0955 16.2443 37.558 15.4361C36.3257 15.0438 34.2761 14.3895 33.0032 13.9821L30.6889 13.2416L28.343 10.8934L25.9972 8.54515L26.6575 8.31365C27.0205 8.18627 28.2065 7.7534 29.2927 7.35177C30.3791 6.95002 31.6166 6.56827 32.0427 6.50352C32.9789 6.36127 34.29 6.44115 35.3522 6.70502ZM61.5051 15.3679V21.9929H59.0676H56.6301V15.3679V8.7429H59.0676H61.5051V15.3679ZM14.9656 10.111C15.9919 10.7384 17.0435 11.0235 18.5729 11.0886C20.2104 11.1583 21.4389 10.884 22.7386 10.1585L23.5345 9.71415L24.8347 11.0098C26.0575 12.2281 26.118 12.3121 25.8512 12.4183C24.1641 13.0899 23.5921 13.4876 22.9223 14.4553C22.593 14.9309 22.3676 15.1266 22.0825 15.1851C21.1571 15.3749 19.6464 16.2405 18.8491 17.0378C17.4654 18.4215 16.7551 20.1369 16.7551 22.0949C16.7551 23.9768 17.3584 25.5394 18.6046 26.886C21.4744 29.9865 26.1045 29.9903 29.0373 26.8943C29.693 26.202 30.6301 24.589 30.6301 24.1526C30.6301 23.9096 30.7825 23.9426 32.906 24.6458L34.8777 25.2988L34.8039 26.4895C34.7071 28.0495 34.9501 29.2161 35.6684 30.6398L36.2155 31.724L34.829 33.102L33.4426 34.48L32.3176 33.9185C29.9015 32.7125 27.373 32.744 25.0128 34.0094L24.083 34.508L17.735 28.1566L11.387 21.8054L11.7601 21.2094C11.9655 20.8815 12.2858 20.1784 12.4719 19.6469C12.766 18.8069 12.8108 18.484 12.814 17.1804C12.8181 15.4714 12.5547 14.4221 11.8216 13.2271L11.4096 12.5554L12.7991 11.1491C13.5632 10.3758 14.2279 9.7429 14.276 9.7429C14.3241 9.7429 14.6345 9.90852 14.9656 10.111ZM54.1301 16.5554V21.9929H53.0051H51.8801V16.5554V11.1179H53.0051H54.1301V16.5554ZM10.1342 15.598C10.5278 16.8721 10.3954 18.5006 9.8055 19.6414L9.606 20.0273L8.1805 18.6058L6.755 17.1844L8.16138 15.774C9.75963 14.171 9.69525 14.1768 10.1342 15.598ZM42.817 17.7946C42.4229 18.1888 42.3142 18.657 42.5082 19.1253C42.851 19.953 43.8722 20.145 44.5147 19.5025C44.9936 19.0236 45.0093 18.4155 44.5565 17.8775C44.2842 17.554 44.1444 17.4929 43.6759 17.4929C43.2536 17.4929 43.0457 17.5659 42.817 17.7946ZM22.1733 18.3366C22.3604 19.5056 23.4533 20.9595 24.6928 21.6883C25.0361 21.8902 25.9923 22.288 26.8174 22.5724C28.5083 23.155 28.4689 23.0954 27.9091 24.223C27.479 25.0895 26.452 26.0231 25.536 26.3804C24.5442 26.7671 23.0933 26.768 22.1049 26.3825C21.1704 26.0179 20.276 25.198 19.7455 24.2195C19.3356 23.4635 19.3176 23.3753 19.3176 22.1179C19.3176 20.5559 19.5256 19.9861 20.4613 18.9859C20.9692 18.4428 21.7393 17.8934 22.0204 17.8734C22.0631 17.8704 22.132 18.0789 22.1733 18.3366ZM37.9874 27.7439C38.3235 27.9506 38.7744 28.1811 38.9892 28.2561C39.2042 28.331 39.3801 28.431 39.3801 28.4781C39.3801 28.5253 39.0817 28.8587 38.7171 29.2188L38.0541 29.8735L37.8256 29.4019C37.4721 28.6721 37.1451 27.3679 37.3157 27.3679C37.3491 27.3679 37.6514 27.5371 37.9874 27.7439ZM30.61 35.8723C30.9911 36.0061 31.361 36.1738 31.4319 36.2446C31.5203 36.333 31.121 36.8131 30.1586 37.7755L28.7566 39.1775L27.3809 37.8061C26.6243 37.0518 26.0051 36.3923 26.0051 36.3404C26.0051 36.2025 26.8399 35.8558 27.6301 35.6654C28.4781 35.461 29.6768 35.5443 30.61 35.8723ZM18.7839 40.986C16.889 41.5006 14.9313 42.8048 13.5635 44.4631L12.8689 45.3054L6.80163 45.3679L0.734375 45.4304L0.367125 45.8415L0 46.2526L0.03375 54.6336L0.067625 63.0146L0.418375 63.3163L0.769125 63.6179H4.995H9.221L9.55062 63.2884C9.83762 63.0014 9.88013 62.8561 9.88013 62.1634V61.3679H11.7614C14.1678 61.3679 14.6301 61.1659 14.6301 60.1144V59.7194L15.2864 59.8085C16.488 59.9718 17.4251 60.3533 19.4426 61.5004C22.014 62.9623 26.4551 65.1459 27.5194 65.4714C29.546 66.0913 31.7392 66.1284 33.5739 65.5738C34.1205 65.4085 37.4082 64.2506 40.8801 63.0005C44.352 61.7504 48.7676 60.1643 50.6926 59.4758C54.5647 58.0908 55.1275 57.828 56.0786 56.9601C57.9808 55.2245 58.3849 52.9557 57.1847 50.7506C56.2499 49.033 54.1979 48.0738 52.0986 48.3733C51.6691 48.4345 49.1841 49.0771 46.5766 49.8013C43.969 50.5254 41.8208 51.1179 41.8027 51.1179C41.7846 51.1179 41.5886 50.778 41.3672 50.3626C40.9102 49.5053 39.7947 48.4054 38.9841 48.013C38.4101 47.7351 35.4606 46.7008 31.2905 45.3148L28.7633 44.4749L27.834 43.5776C25.9447 41.7534 23.902 40.9058 21.1301 40.7961C19.9608 40.7498 19.5231 40.7853 18.7839 40.986ZM22.4426 43.4303C22.9239 43.531 23.7761 43.8394 24.3364 44.1155C25.1526 44.5178 25.5343 44.8094 26.2554 45.5815L27.1555 46.5454L32.4241 48.3336C35.7235 49.4536 37.8782 50.251 38.1891 50.4671C38.8732 50.9429 39.3634 51.6871 39.4586 52.3954C39.571 53.2299 39.0726 54.2445 38.3396 54.6741C37.2774 55.2965 37.3875 55.3176 30.842 53.2405C26.6326 51.9048 24.7729 51.3678 24.55 51.4236C24.0077 51.5598 23.6301 52.0449 23.6301 52.6053C23.6301 53.5834 23.5844 53.562 30.1301 55.6454C35.7344 57.4291 36.1237 57.5351 37.0676 57.5353C39.2072 57.5356 41.0238 56.2469 41.6896 54.256L41.8821 53.6804L46.1624 52.5013C53.0222 50.6114 52.5969 50.7085 53.3574 50.8576C54.2545 51.0335 54.727 51.4011 55.0985 52.2128C55.6504 53.4181 55.2712 54.5369 54.0051 55.4393C53.5976 55.7298 50.7739 56.7959 43.7551 59.3093C38.427 61.2173 33.6739 62.9221 33.1926 63.0979C32.4456 63.3706 32.1073 63.4176 30.8801 63.4193C29.8896 63.4205 29.19 63.3524 28.6301 63.2C27.6549 62.9347 23.0496 60.6805 20.4426 59.1925C18.3806 58.0156 17.2225 57.5691 15.6614 57.3491L14.6301 57.2039L14.6314 52.1921L14.6325 47.1804L15.2708 46.3306C15.9569 45.4171 17.0491 44.4628 18.0019 43.9443C19.2569 43.2611 20.7875 43.084 22.4426 43.4303ZM7.38013 54.4929V61.1179H4.94263H2.50513V54.4929V47.8679H4.94263H7.38013V54.4929ZM12.1301 53.3728V58.8776L11.0364 58.8415L9.94263 58.8054L9.91 53.4929C9.892 50.571 9.90438 48.1101 9.93738 48.0241C9.97875 47.916 10.3259 47.8679 11.0638 47.8679H12.1301V53.3728ZM19.4955 50.3583C18.6468 51.207 19.3901 52.6595 20.5608 52.4399C21.1581 52.3279 21.562 51.8371 21.562 51.223C21.562 50.8105 21.4872 50.6505 21.1565 50.3551C20.6016 49.8593 19.9934 49.8604 19.4955 50.3583Z" fill="#121212"/>
</svg>
