<svg width="48" height="64" viewBox="0 0 48 64" fill="none" xmlns="http://www.w3.org/2000/svg">
<path fill-rule="evenodd" clip-rule="evenodd" d="M2.53032 0.206729C1.27274 0.64282 0.380404 1.63617 0.109036 2.902C0.0109032 3.36 -0.017385 11.7864 0.00977675 32.3947L0.0479535 61.2463L0.311561 61.8159C0.696833 62.6487 1.28475 63.2551 2.09047 63.6508L2.80168 64H23.7676H44.7335L45.4447 63.6508C46.2504 63.2551 46.8383 62.6487 47.2236 61.8159L47.4872 61.2463V32.0192V2.79211L47.2236 2.22246C46.8383 1.38971 46.2504 0.78326 45.4447 0.387599L44.7335 0.0383764L23.9553 0.0104636C4.26441 -0.0160723 3.1434 -0.00580841 2.53032 0.206729ZM44.4024 2.65755C44.5922 2.75568 44.8146 2.98362 44.8968 3.16411C45.1139 3.6405 45.1139 60.3979 44.8968 60.8743C44.5661 61.6003 45.8315 61.5592 23.7676 61.5592C1.70369 61.5592 2.96903 61.6003 2.63834 60.8743C2.4069 60.3663 2.43156 3.53711 2.6635 3.1188C3.03162 2.45465 1.91135 2.48844 23.7425 2.48356C41.0864 2.47981 44.1079 2.50522 44.4024 2.65755ZM5.63177 5.15731C4.54667 5.75875 5.00066 7.48596 6.24384 7.48596C6.87808 7.48596 7.49554 6.87451 7.49554 6.24641C7.49554 5.30664 6.45701 4.69981 5.63177 5.15731ZM40.6792 5.15731C39.5941 5.75875 40.0481 7.48596 41.2913 7.48596C41.9255 7.48596 42.543 6.87451 42.543 6.24641C42.543 5.30664 41.5045 4.69981 40.6792 5.15731ZM10.0405 10.9709C8.78328 11.4076 7.89258 12.3987 7.6177 13.6666C7.52245 14.1059 7.49116 16.4547 7.51845 21.1294C7.557 27.7578 7.56564 27.9673 7.82173 28.5208C8.207 29.3536 8.79492 29.96 9.60064 30.3557L10.3119 30.7049H23.7676H37.2233L37.9345 30.3557C38.7402 29.96 39.3282 29.3536 39.7134 28.5208C39.9718 27.9626 39.977 27.8077 39.977 20.7539C39.977 13.7001 39.9718 13.5453 39.7134 12.987C39.3282 12.1543 38.7402 11.5478 37.9345 11.1522L37.2233 10.803L23.9553 10.7745C11.4734 10.7479 10.6491 10.7595 10.0405 10.9709ZM36.8922 13.4221C37.5196 13.7466 37.5362 13.8935 37.5362 19.0977V23.9384L34.7512 21.166C31.9211 18.3485 31.6357 18.135 30.9335 18.3085C30.7142 18.3626 29.5783 19.3998 27.8038 21.1665L25.0181 23.9395L20.9821 19.9142C18.3367 17.276 16.8272 15.8597 16.6016 15.8044C15.8988 15.6321 15.6135 15.8457 12.784 18.6626L9.99893 21.435L10.0033 17.8088C10.0081 13.9351 10.0344 13.7533 10.6385 13.4185C11.1005 13.1624 36.3968 13.1659 36.8922 13.4221ZM21.0138 23.5702L25.7065 28.2641H18.3471C10.3618 28.2641 10.4644 28.2726 10.1485 27.5792C10.0663 27.3987 9.99893 26.7612 9.99893 26.1625V25.0742L13.0959 21.9752C14.7993 20.2709 16.2219 18.8764 16.257 18.8764C16.2923 18.8764 18.433 20.9886 21.0138 23.5702ZM34.3822 24.4216C37.6122 27.6537 37.6425 27.6977 36.9014 28.081C36.6146 28.2293 35.8612 28.2641 32.9401 28.2641H29.3329L28.0854 27.0119L26.8379 25.7597L29.0252 23.5697C30.2282 22.3652 31.2417 21.3798 31.2774 21.3798C31.313 21.3798 32.7102 22.7486 34.3822 24.4216ZM8.13516 36.7C7.29627 37.1649 7.32381 38.4888 8.18047 38.8791C8.41829 38.9875 9.95387 39.0287 13.754 39.0287C19.3904 39.0287 19.5076 39.0163 19.8341 38.3847C20.1692 37.7367 19.9369 36.9525 19.3276 36.6749C18.831 36.4486 8.54696 36.4717 8.13516 36.7ZM23.1555 36.7C22.0704 37.3015 22.5244 39.0287 23.7676 39.0287C24.4018 39.0287 25.0193 38.4172 25.0193 37.7891C25.0193 36.8494 23.9807 36.2425 23.1555 36.7ZM28.1623 36.7C27.3234 37.1649 27.3509 38.4888 28.2076 38.8791C28.4454 38.9875 29.981 39.0287 33.7811 39.0287C39.4175 39.0287 39.5347 39.0163 39.8612 38.3847C40.1963 37.7367 39.964 36.9525 39.3547 36.6749C38.8581 36.4486 28.5741 36.4717 28.1623 36.7ZM8.13516 44.2102C7.29627 44.6751 7.32381 45.999 8.18047 46.3893C8.41829 46.4977 9.95387 46.5389 13.754 46.5389C19.3904 46.5389 19.5076 46.5265 19.8341 45.8949C20.1692 45.2469 19.9369 44.4627 19.3276 44.185C18.831 43.9587 8.54696 43.9819 8.13516 44.2102ZM23.1555 44.2102C22.0704 44.8116 22.5244 46.5389 23.7676 46.5389C24.4018 46.5389 25.0193 45.9274 25.0193 45.2993C25.0193 44.3595 23.9807 43.7527 23.1555 44.2102ZM28.1623 44.2102C27.3234 44.6751 27.3509 45.999 28.2076 46.3893C28.4454 46.4977 29.981 46.5389 33.7811 46.5389C39.4175 46.5389 39.5347 46.5265 39.8612 45.8949C40.1963 45.2469 39.964 44.4627 39.3547 44.185C38.8581 43.9587 28.5741 43.9819 28.1623 44.2102ZM8.13516 51.7204C7.29627 52.1852 7.32381 53.5092 8.18047 53.8994C8.41829 54.0078 9.95387 54.049 13.754 54.049C19.3904 54.049 19.5076 54.0366 19.8341 53.405C20.1692 52.757 19.9369 51.9728 19.3276 51.6952C18.831 51.4689 8.54696 51.4921 8.13516 51.7204ZM23.1555 51.7204C22.0704 52.3218 22.5244 54.049 23.7676 54.049C24.4018 54.049 25.0193 53.4376 25.0193 52.8095C25.0193 51.8697 23.9807 51.2629 23.1555 51.7204ZM28.1623 51.7204C27.3234 52.1852 27.3509 53.5092 28.2076 53.8994C28.4454 54.0078 29.981 54.049 33.7811 54.049C39.4175 54.049 39.5347 54.0366 39.8612 53.405C40.1963 52.757 39.964 51.9728 39.3547 51.6952C38.8581 51.4689 28.5741 51.4921 28.1623 51.7204ZM5.63177 56.7271C4.54667 57.3286 5.00066 59.0558 6.24384 59.0558C6.87808 59.0558 7.49554 58.4444 7.49554 57.8162C7.49554 56.8765 6.45701 56.2697 5.63177 56.7271ZM40.6792 56.7271C39.5941 57.3286 40.0481 59.0558 41.2913 59.0558C41.9255 59.0558 42.543 58.4444 42.543 57.8162C42.543 56.8765 41.5045 56.2697 40.6792 56.7271Z" fill="#121212"/>
</svg>
