<svg width="30" height="40" viewBox="0 0 30 40" fill="none" xmlns="http://www.w3.org/2000/svg">
<path fill-rule="evenodd" clip-rule="evenodd" d="M1.58145 0.129206C0.795461 0.401762 0.237752 1.0226 0.0681476 1.81375C0.00681449 2.1 -0.0108656 7.36651 0.00611047 20.2467L0.0299709 38.2789L0.194726 38.6349C0.43552 39.1554 0.802971 39.5344 1.30654 39.7817L1.75105 40H14.8547H27.9584L28.4029 39.7817C28.9065 39.5344 29.274 39.1554 29.5147 38.6349L29.6795 38.2789V20.012V1.74507L29.5147 1.38904C29.274 0.868567 28.9065 0.489538 28.4029 0.24225L27.9584 0.0239853L14.9721 0.00653976C2.66526 -0.0100452 1.96462 -0.00363027 1.58145 0.129206ZM27.7515 1.66097C27.8701 1.7223 28.0091 1.86476 28.0605 1.97757C28.1962 2.27532 28.1962 37.7487 28.0605 38.0464C27.8538 38.5002 28.6447 38.4745 14.8547 38.4745C1.06481 38.4745 1.85565 38.5002 1.64896 38.0464C1.50431 37.729 1.51972 2.2107 1.66469 1.94925C1.89476 1.53416 1.1946 1.55528 14.8391 1.55223C25.679 1.54988 27.5674 1.56576 27.7515 1.66097ZM3.51985 3.22332C2.84167 3.59922 3.12541 4.67873 3.9024 4.67873C4.2988 4.67873 4.68471 4.29657 4.68471 3.90401C4.68471 3.31665 4.03563 2.93738 3.51985 3.22332ZM25.4245 3.22332C24.7463 3.59922 25.0301 4.67873 25.8071 4.67873C26.2035 4.67873 26.5894 4.29657 26.5894 3.90401C26.5894 3.31665 25.9403 2.93738 25.4245 3.22332ZM6.2753 6.85683C5.48955 7.12978 4.93286 7.74921 4.76107 8.54161C4.70153 8.81621 4.68197 10.2842 4.69903 13.2059C4.72312 17.3486 4.72852 17.4796 4.88858 17.8255C5.12938 18.346 5.49683 18.725 6.0004 18.9723L6.44491 19.1906H14.8547H23.2646L23.7091 18.9723C24.2126 18.725 24.5801 18.346 24.8209 17.8255C24.9824 17.4766 24.9856 17.3798 24.9856 12.9712C24.9856 8.56258 24.9824 8.46581 24.8209 8.1169C24.5801 7.59643 24.2126 7.2174 23.7091 6.97011L23.2646 6.75185L14.9721 6.73409C7.17089 6.71743 6.65566 6.7247 6.2753 6.85683ZM23.0576 8.38883C23.4497 8.5916 23.4601 8.68345 23.4601 11.9361V14.9615L21.7195 13.2287C19.9507 11.4678 19.7723 11.3344 19.3335 11.4428C19.1964 11.4766 18.4865 12.1249 17.3774 13.2291L15.6363 14.9622L13.1138 12.4464C11.4605 10.7975 10.517 9.9123 10.376 9.87772C9.93675 9.77007 9.75846 9.90354 7.98997 11.6641L6.24933 13.3969L6.25207 11.1305C6.25504 8.70942 6.27147 8.59583 6.64909 8.38656C6.93784 8.2265 22.748 8.22869 23.0576 8.38883ZM13.1337 14.7314L16.0665 17.6651H11.4669C6.47612 17.6651 6.54027 17.6704 6.34282 17.237C6.29142 17.1242 6.24933 16.7257 6.24933 16.3516V15.6713L8.18492 13.7345C9.24957 12.6693 10.1387 11.7977 10.1606 11.7977C10.1827 11.7977 11.5206 13.1179 13.1337 14.7314ZM21.4889 15.2635C23.5076 17.2835 23.5266 17.3111 23.0634 17.5506C22.8841 17.6433 22.4133 17.6651 20.5876 17.6651H18.333L17.5534 16.8824L16.7737 16.0998L18.1407 14.7311C18.8926 13.9783 19.5261 13.3624 19.5484 13.3624C19.5707 13.3624 20.4439 14.2179 21.4889 15.2635ZM5.08447 22.9375C4.56017 23.2281 4.57738 24.0555 5.11279 24.2994C5.26143 24.3672 6.22117 24.3929 8.59626 24.3929C12.119 24.3929 12.1922 24.3852 12.3963 23.9904C12.6058 23.5854 12.4606 23.0953 12.0797 22.9218C11.7694 22.7804 5.34185 22.7948 5.08447 22.9375ZM14.4722 22.9375C13.794 23.3134 14.0777 24.3929 14.8547 24.3929C15.2511 24.3929 15.637 24.0108 15.637 23.6182C15.637 23.0308 14.988 22.6516 14.4722 22.9375ZM17.6014 22.9375C17.0771 23.2281 17.0943 24.0555 17.6297 24.2994C17.7784 24.3672 18.7381 24.3929 21.1132 24.3929C24.636 24.3929 24.7092 24.3852 24.9133 23.9904C25.1227 23.5854 24.9775 23.0953 24.5967 22.9218C24.2863 22.7804 17.8588 22.7948 17.6014 22.9375ZM5.08447 27.6314C4.56017 27.9219 4.57738 28.7494 5.11279 28.9933C5.26143 29.061 6.22117 29.0868 8.59626 29.0868C12.119 29.0868 12.1922 29.079 12.3963 28.6843C12.6058 28.2793 12.4606 27.7892 12.0797 27.6157C11.7694 27.4742 5.34185 27.4887 5.08447 27.6314ZM14.4722 27.6314C13.794 28.0073 14.0777 29.0868 14.8547 29.0868C15.2511 29.0868 15.637 28.7046 15.637 28.3121C15.637 27.7247 14.988 27.3454 14.4722 27.6314ZM17.6014 27.6314C17.0771 27.9219 17.0943 28.7494 17.6297 28.9933C17.7784 29.061 18.7381 29.0868 21.1132 29.0868C24.636 29.0868 24.7092 29.079 24.9133 28.6843C25.1227 28.2793 24.9775 27.7892 24.5967 27.6157C24.2863 27.4742 17.8588 27.4887 17.6014 27.6314ZM5.08447 32.3252C4.56017 32.6158 4.57738 33.4432 5.11279 33.6872C5.26143 33.7549 6.22117 33.7806 8.59626 33.7806C12.119 33.7806 12.1922 33.7729 12.3963 33.3781C12.6058 32.9731 12.4606 32.483 12.0797 32.3095C11.7694 32.1681 5.34185 32.1825 5.08447 32.3252ZM14.4722 32.3252C13.794 32.7011 14.0777 33.7806 14.8547 33.7806C15.2511 33.7806 15.637 33.3985 15.637 33.0059C15.637 32.4186 14.988 32.0393 14.4722 32.3252ZM17.6014 32.3252C17.0771 32.6158 17.0943 33.4432 17.6297 33.6872C17.7784 33.7549 18.7381 33.7806 21.1132 33.7806C24.636 33.7806 24.7092 33.7729 24.9133 33.3781C25.1227 32.9731 24.9775 32.483 24.5967 32.3095C24.2863 32.1681 17.8588 32.1825 17.6014 32.3252ZM3.51985 35.4545C2.84167 35.8304 3.12541 36.9099 3.9024 36.9099C4.2988 36.9099 4.68471 36.5277 4.68471 36.1352C4.68471 35.5478 4.03563 35.1685 3.51985 35.4545ZM25.4245 35.4545C24.7463 35.8304 25.0301 36.9099 25.8071 36.9099C26.2035 36.9099 26.5894 36.5277 26.5894 36.1352C26.5894 35.5478 25.9403 35.1685 25.4245 35.4545Z" fill="white"/>
</svg>
