<svg width="48" height="40" viewBox="0 0 48 40" fill="none" xmlns="http://www.w3.org/2000/svg">
<path fill-rule="evenodd" clip-rule="evenodd" d="M4.04001 0.128207C1.55088 0.723203 -0.197932 3.09772 0.0180086 5.5893C0.195958 7.64276 1.64338 9.45034 3.63768 10.1094C4.21402 10.2998 4.45744 10.3152 7.3732 10.3452L10.4922 10.3772V11.1124V11.8476H7.64842C6.04013 11.8476 4.56269 11.8906 4.24798 11.9466C2.71341 12.2195 1.24339 13.3338 0.554388 14.7464C-0.63666 17.1883 0.143333 19.9049 2.46511 21.4009C3.57868 22.1184 3.85005 22.1626 7.3732 22.1988L10.4922 22.2309V30.8882V39.5454L10.7225 39.7727L10.9527 40H23.267H35.5812L38.0456 37.5671L40.51 35.1343V28.6769V22.2196H41.902C43.4902 22.2196 44.3693 22.0505 45.2846 21.5688C46.3391 21.0139 47.326 19.8449 47.7277 18.6749C48.5393 16.3113 47.452 13.6242 45.2144 12.4634C44.3003 11.9891 43.5543 11.8512 41.8936 11.8492L40.51 11.8476V11.116V10.3843L42.1281 10.3442C43.4544 10.3114 43.8574 10.2682 44.3628 10.1049C46.3525 9.46182 47.8037 7.65128 47.9824 5.5893C48.1561 3.58539 47.0291 1.5511 45.2275 0.61652C43.9453 -0.0485793 45.4948 -0.00394309 23.9533 0.00328022C8.52166 0.00846618 4.4339 0.0341184 4.04001 0.128207ZM6.06377 1.57194C7.18493 1.82726 8.06023 2.5244 8.59117 3.58502C8.92512 4.25197 8.94444 4.33902 8.94444 5.17516C8.94444 5.97788 8.91667 6.11753 8.64492 6.684C8.00864 8.01003 6.65671 8.87952 5.22552 8.88313C4.64571 8.88461 3.69209 8.5853 3.15261 8.23257C2.55826 7.8438 2.17084 7.38679 1.82489 6.66604C1.56252 6.11956 1.53381 5.97251 1.53381 5.17516C1.53381 4.33902 1.55313 4.25197 1.88708 3.58502C2.68068 1.99969 4.36908 1.18596 6.06377 1.57194ZM43.5859 1.57194C44.7071 1.82726 45.5824 2.5244 46.1133 3.58502C46.4473 4.25197 46.4666 4.33902 46.4666 5.17516C46.4666 5.97788 46.4389 6.11753 46.1671 6.684C45.8264 7.39411 45.15 8.1156 44.5332 8.42686C43.5925 8.90165 44.3885 8.88192 26.0874 8.88313C16.6845 8.88378 8.99134 8.85849 8.99134 8.82701C8.99134 8.79552 9.11526 8.6305 9.26666 8.46029C10.7903 6.74707 10.8684 3.88238 9.44058 2.07766C9.27942 1.87393 9.10719 1.65519 9.05795 1.59148C8.94331 1.44331 42.9368 1.42414 43.5859 1.57194ZM4.48868 3.07846C4.02829 3.22172 3.24304 4.02444 3.10186 4.49617C2.84202 5.36445 3.02522 6.05668 3.68815 6.71113C4.65791 7.6685 6.04726 7.61349 6.94123 6.58241C7.70161 5.70534 7.67084 4.58545 6.86187 3.69717C6.25476 3.03058 5.37768 2.80185 4.48868 3.07846ZM5.75928 4.66648C6.22465 5.12581 5.89492 5.92083 5.23913 5.92083C4.85349 5.92083 4.48868 5.56068 4.48868 5.17998C4.48868 4.79927 4.85349 4.43913 5.23913 4.43913C5.42186 4.43913 5.61416 4.52312 5.75928 4.66648ZM39.0091 22.2196V34.0732H36.988C34.9672 34.0732 34.9669 34.0732 34.7367 34.3005C34.5064 34.5278 34.5064 34.5281 34.5064 36.5231V38.5183H23.2498H11.9931V24.4421V10.3659H25.5011H39.0091V22.2196ZM6.78026 13.6831C7.62666 14.0742 8.1743 14.6059 8.59408 15.4445C8.92474 16.1049 8.94444 16.1939 8.94444 17.0288C8.94444 17.8315 8.91667 17.9712 8.64492 18.5376C8.00864 19.8637 6.65671 20.7331 5.22552 20.7367C4.64571 20.7382 3.69209 20.4389 3.15261 20.0862C2.55826 19.6974 2.17084 19.2404 1.82489 18.5197C1.56289 17.9738 1.53381 17.8256 1.53381 17.0336C1.53381 16.238 1.56223 16.0947 1.83071 15.5352C2.20762 14.7497 2.74428 14.1747 3.44425 13.8065C4.18316 13.4177 4.58746 13.3297 5.45009 13.3703C6.01311 13.3968 6.31301 13.4672 6.78026 13.6831ZM10.4817 14.8805C10.4733 16.1334 10.4542 16.3439 10.3829 15.9749C10.2626 15.3528 9.75107 14.2949 9.33458 13.8067C9.14584 13.5855 8.99134 13.3875 8.99134 13.3669C8.99134 13.3462 9.32904 13.3293 9.74179 13.3293H10.4922L10.4817 14.8805ZM44.3713 13.7215C45.2248 14.1381 45.7567 14.6745 46.1697 15.5352C46.4382 16.0947 46.4666 16.238 46.4666 17.0336C46.4666 17.8309 46.4386 17.9719 46.1671 18.5376C45.8264 19.2477 45.15 19.9692 44.5332 20.2805C43.8204 20.6403 43.259 20.7356 41.8467 20.7367L40.51 20.7379V17.0243V13.3106L42.0863 13.3431L43.6626 13.3756L44.3713 13.7215ZM4.42067 14.9642C3.66732 15.2276 2.9878 16.2089 2.9878 17.0336C2.9878 18.1766 4.08044 19.2543 5.23913 19.2543C6.11546 19.2543 7.13315 18.5136 7.38155 17.695C7.62253 16.9011 7.45237 16.1991 6.86187 15.5508C6.23121 14.8583 5.33781 14.6436 4.42067 14.9642ZM17.731 15.0521C16.098 15.8556 16.0874 18.1585 17.7132 18.9773C18.7835 19.5164 20.0609 19.1331 20.6822 18.0865C21.0222 17.5139 21.05 16.6255 20.7456 16.0612C20.1274 14.915 18.8672 14.4932 17.731 15.0521ZM5.75928 16.5201C6.22465 16.9794 5.89492 17.7745 5.23913 17.7745C4.85349 17.7745 4.48868 17.4143 4.48868 17.0336C4.48868 16.6529 4.85349 16.2928 5.23913 16.2928C5.42186 16.2928 5.61416 16.3767 5.75928 16.5201ZM19.1878 16.4318C19.4343 16.6022 19.5461 17.0488 19.4067 17.306C19.1415 17.7952 18.5749 17.8823 18.1819 17.4943C17.5845 16.9045 18.4893 15.9487 19.1878 16.4318ZM10.4922 19.2099V20.7379H9.74179C9.32904 20.7379 8.99134 20.7121 8.99134 20.6806C8.99134 20.6491 9.11526 20.4841 9.26666 20.3139C9.81224 19.7004 10.3984 18.4496 10.3984 17.8988C10.3984 17.7795 10.4195 17.6818 10.4453 17.6818C10.4711 17.6818 10.4922 18.3695 10.4922 19.2099ZM28.048 17.9365C27.9412 18.0257 27.1091 19.2446 26.199 20.6453C25.2889 22.0459 24.4888 23.2493 24.4211 23.3195C24.318 23.4262 24.1684 23.2507 23.5046 22.245C22.4813 20.6946 22.1514 20.4667 21.6239 20.9462C21.3635 21.1829 16.7052 28.2436 16.5551 28.6292C16.4258 28.961 16.5689 29.3573 16.8726 29.509C17.0548 29.6 19.0999 29.6257 26.2623 29.6267C35.2539 29.6281 35.4235 29.6247 35.6558 29.4443C35.9623 29.2063 36.0471 28.8612 35.8781 28.5391C35.5055 27.829 29.2034 18.2478 28.9652 18.0291C28.6459 17.7363 28.3266 17.7041 28.048 17.9365ZM31.2146 24.0717L33.8421 28.1001L28.531 28.124C25.61 28.1371 23.2027 28.1308 23.1815 28.1099C23.1604 28.089 24.3384 26.2369 25.7995 23.9944C27.2605 21.7517 28.4855 19.9453 28.5216 19.9801C28.5577 20.0149 29.7695 21.8561 31.2146 24.0717ZM22.8227 23.9218L23.4423 24.8812L22.3845 26.5118L21.3268 28.1424L19.9822 28.1444C19.2427 28.1454 18.6517 28.1118 18.669 28.0696C18.7825 27.7911 22.085 22.8903 22.1376 22.9224C22.1737 22.9444 22.482 23.3941 22.8227 23.9218ZM37.8834 35.5798C37.8834 35.5935 37.4613 36.0199 36.9454 36.5273L36.0073 37.4498V36.5023V35.5549H36.9454C37.4613 35.5549 37.8834 35.5661 37.8834 35.5798Z" fill="white"/>
</svg>
