<svg width="41" height="40" viewBox="0 0 41 40" fill="none" xmlns="http://www.w3.org/2000/svg">
<path fill-rule="evenodd" clip-rule="evenodd" d="M8.67955 0.0478743C7.62929 0.22366 6.6088 0.867973 5.98824 1.74706C5.36814 2.62552 0.607946 10.3416 0.394347 10.8145C0.0516823 11.5732 0.00746246 11.9602 0.00746246 14.2004C0.00746246 16.5002 0.0512917 16.8224 0.485756 17.7153C0.624275 17.9999 0.922173 18.4097 1.18788 18.6812L1.64938 19.1529L1.17929 19.6553C0.642869 20.2288 0.291923 20.868 0.125122 21.5757C-0.0423825 22.2859 -0.041445 26.0982 0.126372 26.7555C0.315908 27.498 0.684901 28.1674 1.18788 28.6815L1.64938 29.1531L1.17929 29.6556C0.642869 30.229 0.291923 30.8682 0.125122 31.5759C-0.0410544 32.2806 -0.0391012 36.0764 0.127778 36.7844C0.398488 37.9329 1.2957 39.0442 2.35994 39.5495C2.67745 39.7002 3.12356 39.8621 3.35122 39.9092C3.93631 40.0303 36.0796 40.0303 36.6647 39.9092C38.1827 39.595 39.5345 38.2845 39.8881 36.7844C40.055 36.0764 40.057 32.2806 39.8908 31.5759C39.724 30.8682 39.373 30.229 38.8366 29.6556L38.3665 29.1531L38.828 28.6815C39.331 28.1674 39.7 27.498 39.8895 26.7555C40.0574 26.0982 40.0583 22.2859 39.8908 21.5757C39.724 20.868 39.373 20.2288 38.8366 19.6553L38.3665 19.1529L38.828 18.6812C39.0937 18.4097 39.3916 17.9999 39.5302 17.7153C39.9646 16.8224 40.0085 16.5002 40.0085 14.2004C40.0085 11.954 39.9648 11.575 39.6166 10.8023C39.4251 10.3773 34.8343 2.91974 34.0625 1.77987C33.687 1.2254 33.1506 0.758829 32.5473 0.462181C31.5414 -0.0325183 32.2355 -0.00712708 20.0111 0.00451384C13.8862 0.0103734 8.78698 0.0299051 8.67955 0.0478743ZM31.6489 1.87972C31.8852 1.99308 32.1932 2.18644 32.3332 2.30941C32.4733 2.43239 33.3977 3.83383 34.3876 5.42371L36.1874 8.31441L28.0977 8.33433C23.6484 8.34527 16.3683 8.34527 11.9199 8.33433L3.83201 8.31441L5.63026 5.42371C6.61935 3.83383 7.54304 2.43371 7.68297 2.31231C8.02032 2.01964 8.46416 1.79495 8.86268 1.7151C9.04128 1.67932 14.1445 1.65541 20.2033 1.66182L31.2192 1.67362L31.6489 1.87972ZM36.852 10.2135C37.3085 10.4202 37.8119 10.9048 38.0485 11.3653C38.327 11.9074 38.3848 12.4947 38.3559 14.4882L38.3287 16.365L38.0732 16.8839C37.7805 17.4784 37.4271 17.8214 36.8088 18.1114L36.3756 18.3147H20.008H3.64036L3.20707 18.1114C2.58878 17.8214 2.23541 17.4784 1.94274 16.8839L1.68719 16.365L1.66 14.4882C1.6311 12.4944 1.68891 11.9072 1.96751 11.3653C2.16525 10.9807 2.61925 10.4941 2.93722 10.3262C3.56653 9.99351 3.0284 10.0031 20.1251 10.0185L36.4537 10.0332L36.852 10.2135ZM5.32009 11.7454C4.76617 11.8654 4.48757 12.017 4.08983 12.4147C3.56388 12.9406 3.40575 13.3484 3.40747 14.1739C3.4088 14.7819 3.43692 14.93 3.6156 15.2677C3.86326 15.7361 4.29437 16.1616 4.77321 16.4105C5.06478 16.562 5.24478 16.5934 5.82792 16.5945C6.65372 16.5961 7.06131 16.4379 7.58781 15.9114C7.98633 15.5129 8.17329 15.1561 8.27439 14.6011C8.59018 12.8673 7.04326 11.372 5.32009 11.7454ZM20.6753 11.691C19.9867 11.8697 19.8069 12.7805 20.383 13.1714C20.5835 13.3075 20.9342 13.3145 27.5081 13.3145C34.0821 13.3145 34.4328 13.3075 34.6332 13.1714C35.083 12.8662 35.083 12.1222 34.6332 11.817C34.4332 11.6812 34.0751 11.6733 27.6253 11.6625C23.887 11.6564 20.7595 11.6691 20.6753 11.691ZM6.40786 13.594C7.04576 14.2319 6.28582 15.2957 5.48713 14.8827C4.95813 14.6091 4.87758 13.9332 5.32877 13.5536C5.67401 13.263 6.09261 13.2787 6.40786 13.594ZM20.4582 15.1165C19.9561 15.389 19.8899 16.0653 20.3291 16.4349L20.5668 16.6349H27.5081H34.4495L34.6872 16.4349C35.1329 16.0598 35.0583 15.3797 34.5421 15.1128C34.2 14.9359 20.7845 14.9395 20.4582 15.1165ZM36.852 20.2138C37.3085 20.4204 37.8119 20.905 38.0485 21.3656C38.327 21.9076 38.3848 22.4949 38.3559 24.4884L38.3287 26.3652L38.0732 26.8842C37.7805 27.4786 37.4271 27.8217 36.8088 28.1117L36.3756 28.3149H20.008H3.64036L3.20707 28.1117C2.58878 27.8217 2.23541 27.4786 1.94274 26.8842L1.68719 26.3652L1.66 24.4884C1.6311 22.4947 1.68891 21.9075 1.96751 21.3656C2.16525 20.981 2.61925 20.4944 2.93722 20.3264C3.56653 19.9938 3.0284 20.0034 20.1251 20.0188L36.4537 20.0334L36.852 20.2138ZM5.32009 21.7456C4.76617 21.8656 4.48757 22.0172 4.08983 22.4149C3.56388 22.9409 3.40575 23.3486 3.40747 24.1742C3.4088 24.7822 3.43692 24.9302 3.6156 25.268C3.86326 25.7363 4.29437 26.1618 4.77321 26.4107C5.06478 26.5622 5.24478 26.5937 5.82792 26.5948C6.65372 26.5963 7.06131 26.4381 7.58781 25.9116C7.98633 25.5131 8.17329 25.1563 8.27439 24.6014C8.59018 22.8676 7.04326 21.3722 5.32009 21.7456ZM20.6753 21.6912C19.9867 21.8699 19.8069 22.7807 20.383 23.1717C20.5835 23.3077 20.9342 23.3148 27.5081 23.3148C34.0821 23.3148 34.4328 23.3077 34.6332 23.1717C35.083 22.8664 35.083 22.1225 34.6332 21.8172C34.4332 21.6815 34.0751 21.6736 27.6253 21.6628C23.887 21.6566 20.7595 21.6693 20.6753 21.6912ZM6.40786 23.5942C7.04576 24.2321 6.28582 25.2959 5.48713 24.8829C4.95813 24.6093 4.87758 23.9335 5.32877 23.5538C5.67401 23.2633 6.09261 23.279 6.40786 23.5942ZM20.4582 25.1168C19.9561 25.3892 19.8899 26.0656 20.3291 26.4352L20.5668 26.6352H27.5081H34.4495L34.6872 26.4352C35.1329 26.06 35.0583 25.38 34.5421 25.113C34.2 24.9361 20.7845 24.9397 20.4582 25.1168ZM36.852 30.214C37.3085 30.4207 37.8119 30.9053 38.0485 31.3658C38.327 31.9079 38.3848 32.4952 38.3559 34.4887L38.3287 36.3655L38.0732 36.8844C37.7805 37.4789 37.4271 37.8219 36.8088 38.1119L36.3756 38.3152H20.008H3.64036L3.20707 38.1119C2.58878 37.8219 2.23541 37.4789 1.94274 36.8844L1.68719 36.3655L1.66 34.4887C1.6311 32.4949 1.68891 31.9077 1.96751 31.3658C2.16525 30.9812 2.61925 30.4946 2.93722 30.3267C3.56653 29.994 3.0284 30.0036 20.1251 30.019L36.4537 30.0337L36.852 30.214ZM5.32009 31.7458C4.76617 31.8659 4.48757 32.0175 4.08983 32.4152C3.56388 32.9411 3.40575 33.3489 3.40747 34.1744C3.4088 34.7824 3.43692 34.9305 3.6156 35.2682C3.86326 35.7366 4.29437 36.1621 4.77321 36.411C5.06478 36.5625 5.24478 36.5939 5.82792 36.595C6.65372 36.5966 7.06131 36.4384 7.58781 35.9119C7.98633 35.5134 8.17329 35.1566 8.27439 34.6016C8.59018 32.8678 7.04326 31.3725 5.32009 31.7458ZM20.6753 31.6915C19.9867 31.8701 19.8069 32.781 20.383 33.1719C20.5835 33.308 20.9342 33.315 27.5081 33.315C34.0821 33.315 34.4328 33.308 34.6332 33.1719C35.083 32.8667 35.083 32.1227 34.6332 31.8175C34.4332 31.6817 34.0751 31.6738 27.6253 31.663C23.887 31.6569 20.7595 31.6696 20.6753 31.6915ZM6.40786 33.5945C7.04576 34.2324 6.28582 35.2962 5.48713 34.8832C4.95813 34.6096 4.87758 33.9337 5.32877 33.5541C5.67401 33.2635 6.09261 33.2792 6.40786 33.5945ZM20.4582 35.117C19.9561 35.3895 19.8899 36.0658 20.3291 36.4354L20.5668 36.6354H27.5081H34.4495L34.6872 36.4354C35.1329 36.0603 35.0583 35.3802 34.5421 35.1133C34.2 34.9364 20.7845 34.94 20.4582 35.117Z" fill="white"/>
</svg>
