<svg width="38" height="48" viewBox="0 0 38 48" fill="none" xmlns="http://www.w3.org/2000/svg">
<g filter="url(#filter0_d_2_178)">
<mask id="path-1-inside-1_2_178" fill="white">
<path fill-rule="evenodd" clip-rule="evenodd" d="M10.5391 0.11238C9.72237 0.404737 8.33732 1.73266 8.3884 2.17437C8.41061 2.36635 8.42624 2.37073 9.22354 2.40915L10.0361 2.44826L10.0564 5.12774L10.0768 7.80722H8.4226C7.5127 7.80722 6.59204 7.84102 6.3766 7.88233C5.45454 8.05913 4.66707 8.6638 4.2539 9.51224L4 10.0336V22.2396V34.4456L4.16646 34.7976C4.53543 35.5778 5.15158 36.1362 5.98959 36.4497L6.47635 36.6318L12.8994 36.6938C16.432 36.7279 21.2632 36.7818 23.6353 36.8134L27.9481 36.8708L29.1588 38.2008C29.8247 38.9322 30.4088 39.554 30.4568 39.5825C30.5047 39.611 31.2675 39.7288 32.1518 39.8443C33.4272 40.0108 33.7833 40.0346 33.8733 39.959C34.0383 39.8206 34.044 31.6446 33.8794 31.2465C33.8024 31.0602 33.0763 30.3919 31.3257 28.8964L28.8796 26.8067V24.5559C28.8796 22.1197 28.8393 21.8062 28.4626 21.307C28.1523 20.8956 27.5611 20.6374 26.9297 20.6374H26.4032V15.684C26.4032 12.4449 26.374 10.571 26.3189 10.2695C26.0984 9.06341 25.2155 8.15168 24.0198 7.89516C23.7907 7.84603 22.8941 7.80722 21.9884 7.80722H20.3671V4.1449V0.482579L20.1299 0.252808L19.8927 0.0230379L15.39 0.00535727C11.438 -0.0101329 10.8448 0.00293205 10.5391 0.11238ZM18.3541 0.629344C18.3535 0.640062 18.2491 0.856298 18.1219 1.10977C17.9948 1.36325 17.8908 1.61844 17.8908 1.67696C17.8908 1.76529 17.1677 1.78328 13.6194 1.78328H9.34798L9.61047 1.50947C9.95438 1.15077 10.3829 0.854342 10.7479 0.722754C10.9792 0.639358 11.8239 0.615888 14.6986 0.613228C16.7097 0.61135 18.3546 0.618626 18.3541 0.629344ZM19.748 4.99084V9.29365H15.2209H10.6939V5.89052V2.48738H14.4803C17.8193 2.48738 18.281 2.47283 18.3883 2.36447C18.4551 2.2968 18.5101 2.18243 18.5103 2.11022C18.512 1.57612 19.0277 0.804742 19.4239 0.743564C19.5383 0.725883 19.658 0.706169 19.69 0.699754C19.7219 0.69326 19.748 2.62429 19.748 4.99084ZM24.1664 8.59566C24.7294 8.74062 25.3823 9.37181 25.5963 9.97803C25.6788 10.2116 25.7006 11.3297 25.7033 15.4545L25.7067 20.6374H22.6009C20.4977 20.6374 19.3999 20.6662 19.2003 20.7267C18.773 20.8562 18.3618 21.2333 18.1524 21.688L17.9697 22.0848L17.9689 28.7175C17.9682 34.4375 17.9841 35.3889 18.0842 35.6311C18.1481 35.7856 18.2003 35.9429 18.2003 35.9807C18.2003 36.0734 7.55712 36.0645 6.8461 35.9711C5.91306 35.8486 5.19484 35.3925 4.82811 34.6897L4.61909 34.2891V22.2412V10.1933L4.82524 9.80217C5.08425 9.31063 5.52295 8.87949 5.97334 8.67381C6.29225 8.52814 6.47944 8.51461 8.19818 8.51304L10.0748 8.51132V9.12154C10.0748 9.49182 10.1113 9.76868 10.1677 9.82564C10.3018 9.96129 20.1401 9.96129 20.2742 9.82564C20.3317 9.76751 20.3671 9.48118 20.3671 9.07374V8.41564L22.1276 8.46986C23.0959 8.49967 24.0134 8.55631 24.1664 8.59566ZM6.14359 12.1257C6.00979 12.261 6.00979 19.8607 6.14359 19.9959C6.21471 20.0678 8.32123 20.0898 15.1535 20.0898C23.1567 20.0898 24.083 20.0772 24.1922 19.9669C24.2994 19.8585 24.3138 19.3957 24.3138 16.0608C24.3138 12.7259 24.2994 12.2631 24.1922 12.1547C24.083 12.0444 23.1567 12.0318 15.1535 12.0318C8.32123 12.0318 6.21471 12.0538 6.14359 12.1257ZM23.6173 16.0611V19.4647L15.1629 19.4447L6.7085 19.4248L6.68831 16.0413L6.66819 12.6577H15.1427H23.6173V16.0611ZM6.98702 21.3713C6.9258 21.4459 6.90491 21.9126 6.91946 22.8773L6.94066 24.2753L8.82702 24.2962C10.1536 24.311 10.7449 24.2908 10.8197 24.228C10.9024 24.1586 10.926 23.8374 10.926 22.782C10.926 21.5207 10.9155 21.4196 10.7764 21.3443C10.6857 21.2952 9.92706 21.2633 8.85116 21.2633C7.43547 21.2633 7.05775 21.2852 6.98702 21.3713ZM13.3692 21.3862C13.2683 21.4882 13.2476 21.7325 13.2476 22.8179C13.2476 23.7315 13.2756 24.155 13.3405 24.2205C13.4721 24.3536 16.815 24.3536 16.9467 24.2205C17.0771 24.0886 17.0771 21.4891 16.9467 21.3572C16.8801 21.2899 16.3769 21.2633 15.1723 21.2633C13.7469 21.2633 13.4723 21.282 13.3692 21.3862ZM20.5219 28.6954V36.1276H19.9732C19.4989 36.1276 19.3846 36.0986 19.1304 35.9138C18.5731 35.5088 18.5872 35.6971 18.5872 28.7111C18.5872 22.6738 18.5911 22.5103 18.7449 22.0948C18.9671 21.4943 19.3177 21.2895 20.1543 21.2713L20.5219 21.2633V28.6954ZM27.7006 21.4846C28.2441 21.8766 28.2244 21.6791 28.1981 26.4637C28.185 28.8291 28.1613 30.7776 28.1452 30.7938C28.1292 30.81 27.7458 30.4941 27.2934 30.0918C26.2083 29.1273 25.9151 28.9731 25.165 28.9727C24.5221 28.9723 24.2257 29.0868 23.7846 29.5061C23.368 29.9021 23.1974 30.303 23.1974 30.886C23.1974 31.262 23.2428 31.4819 23.3716 31.7297C23.4674 31.914 24.3803 32.9763 25.4001 34.0903C26.42 35.2043 27.2544 36.136 27.2544 36.1608C27.2544 36.1856 25.8789 36.2058 24.1977 36.2058H21.141V28.7313V21.2567L24.2944 21.2796L27.4479 21.3024L27.7006 21.4846ZM10.2902 22.8084L10.3121 23.6885H8.91655H7.52106V22.787V21.8856L8.89465 21.9069L10.2683 21.9283L10.2902 22.8084ZM16.4204 22.7888V23.6885H15.1436H13.8667V22.841C13.8667 22.3748 13.8899 21.97 13.9183 21.9413C13.9466 21.9126 14.5212 21.8892 15.1952 21.8892H16.4204V22.7888ZM7.10093 26.4714C7.00009 26.5734 6.97936 26.8176 6.97936 27.903C6.97936 28.8166 7.00737 29.2401 7.07222 29.3057C7.139 29.3732 7.65849 29.3995 8.9212 29.3995C10.4512 29.3995 10.6834 29.3836 10.7243 29.2758C10.7501 29.2077 10.7713 28.5577 10.7713 27.8312C10.7713 26.6054 10.7605 26.5046 10.6216 26.4294C10.5321 26.381 9.81918 26.3485 8.84722 26.3485C7.47346 26.3485 7.20377 26.3675 7.10093 26.4714ZM13.3692 26.4714C13.2683 26.5734 13.2476 26.8176 13.2476 27.903C13.2476 28.8166 13.2756 29.2401 13.3405 29.3057C13.4721 29.4387 16.815 29.4387 16.9467 29.3057C17.0117 29.2399 17.0395 28.8073 17.0395 27.8611C17.0395 26.6058 17.0289 26.5047 16.8899 26.4294C16.8003 26.381 16.0874 26.3485 15.1155 26.3485C13.7417 26.3485 13.472 26.3675 13.3692 26.4714ZM10.1522 27.9131V28.7737H8.914H7.67583V27.9131V27.0525H8.914H10.1522V27.9131ZM16.4204 27.9131V28.7737H15.1436H13.8667V27.9131V27.0525H15.1436H16.4204V27.9131ZM31.218 29.6612C32.3126 30.5935 33.2442 31.4242 33.2881 31.5072C33.3812 31.6829 33.4024 39.3352 33.3099 39.335C33.2779 39.3349 32.6947 39.2641 32.0137 39.1777L30.7755 39.0206L30.5047 38.7213C30.3557 38.5568 28.8409 36.8995 27.1384 35.0385C25.4359 33.1775 23.9954 31.5642 23.9373 31.4535C23.7855 31.1645 23.8045 30.5568 23.9744 30.2661C24.2803 29.7426 24.9485 29.47 25.5349 29.6295C25.9258 29.736 26.1354 29.9048 28.4539 31.9815C30.619 33.9206 30.5926 33.9004 30.809 33.7834C31.147 33.6005 31.007 33.3865 29.9228 32.4288L28.8796 31.5074V29.5792V27.6511L29.0537 27.8086C29.1495 27.8951 30.1234 28.7288 31.218 29.6612ZM7.05945 32.0543C7.01379 32.1405 6.97936 32.744 6.97936 33.4569C6.97936 34.4902 7.00056 34.7296 7.10093 34.8312C7.20408 34.9354 7.47865 34.9541 8.90402 34.9541C10.1087 34.9541 10.6118 34.9275 10.6784 34.8602C10.8089 34.7283 10.8089 32.1288 10.6784 31.9969C10.6118 31.9295 10.0995 31.903 8.86254 31.903C7.23829 31.903 7.13498 31.9117 7.05945 32.0543ZM13.3405 31.9969C13.2756 32.0624 13.2476 32.4859 13.2476 33.3995C13.2476 34.4849 13.2683 34.7292 13.3692 34.8312C13.4723 34.9354 13.7469 34.9541 15.1723 34.9541C16.3769 34.9541 16.8801 34.9275 16.9467 34.8602C17.0771 34.7283 17.0771 32.1288 16.9467 31.9969C16.815 31.8638 13.4721 31.8638 13.3405 31.9969ZM10.1522 33.4285V34.3282H8.914H7.67583V33.4285V32.5289H8.914H10.1522V33.4285ZM16.4204 33.4305V34.3321L15.1629 34.3106L13.9054 34.2891L13.8835 33.409L13.8616 32.5289H15.141H16.4204V33.4305Z"/>
</mask>
<path fill-rule="evenodd" clip-rule="evenodd" d="M10.5391 0.11238C9.72237 0.404737 8.33732 1.73266 8.3884 2.17437C8.41061 2.36635 8.42624 2.37073 9.22354 2.40915L10.0361 2.44826L10.0564 5.12774L10.0768 7.80722H8.4226C7.5127 7.80722 6.59204 7.84102 6.3766 7.88233C5.45454 8.05913 4.66707 8.6638 4.2539 9.51224L4 10.0336V22.2396V34.4456L4.16646 34.7976C4.53543 35.5778 5.15158 36.1362 5.98959 36.4497L6.47635 36.6318L12.8994 36.6938C16.432 36.7279 21.2632 36.7818 23.6353 36.8134L27.9481 36.8708L29.1588 38.2008C29.8247 38.9322 30.4088 39.554 30.4568 39.5825C30.5047 39.611 31.2675 39.7288 32.1518 39.8443C33.4272 40.0108 33.7833 40.0346 33.8733 39.959C34.0383 39.8206 34.044 31.6446 33.8794 31.2465C33.8024 31.0602 33.0763 30.3919 31.3257 28.8964L28.8796 26.8067V24.5559C28.8796 22.1197 28.8393 21.8062 28.4626 21.307C28.1523 20.8956 27.5611 20.6374 26.9297 20.6374H26.4032V15.684C26.4032 12.4449 26.374 10.571 26.3189 10.2695C26.0984 9.06341 25.2155 8.15168 24.0198 7.89516C23.7907 7.84603 22.8941 7.80722 21.9884 7.80722H20.3671V4.1449V0.482579L20.1299 0.252808L19.8927 0.0230379L15.39 0.00535727C11.438 -0.0101329 10.8448 0.00293205 10.5391 0.11238ZM18.3541 0.629344C18.3535 0.640062 18.2491 0.856298 18.1219 1.10977C17.9948 1.36325 17.8908 1.61844 17.8908 1.67696C17.8908 1.76529 17.1677 1.78328 13.6194 1.78328H9.34798L9.61047 1.50947C9.95438 1.15077 10.3829 0.854342 10.7479 0.722754C10.9792 0.639358 11.8239 0.615888 14.6986 0.613228C16.7097 0.61135 18.3546 0.618626 18.3541 0.629344ZM19.748 4.99084V9.29365H15.2209H10.6939V5.89052V2.48738H14.4803C17.8193 2.48738 18.281 2.47283 18.3883 2.36447C18.4551 2.2968 18.5101 2.18243 18.5103 2.11022C18.512 1.57612 19.0277 0.804742 19.4239 0.743564C19.5383 0.725883 19.658 0.706169 19.69 0.699754C19.7219 0.69326 19.748 2.62429 19.748 4.99084ZM24.1664 8.59566C24.7294 8.74062 25.3823 9.37181 25.5963 9.97803C25.6788 10.2116 25.7006 11.3297 25.7033 15.4545L25.7067 20.6374H22.6009C20.4977 20.6374 19.3999 20.6662 19.2003 20.7267C18.773 20.8562 18.3618 21.2333 18.1524 21.688L17.9697 22.0848L17.9689 28.7175C17.9682 34.4375 17.9841 35.3889 18.0842 35.6311C18.1481 35.7856 18.2003 35.9429 18.2003 35.9807C18.2003 36.0734 7.55712 36.0645 6.8461 35.9711C5.91306 35.8486 5.19484 35.3925 4.82811 34.6897L4.61909 34.2891V22.2412V10.1933L4.82524 9.80217C5.08425 9.31063 5.52295 8.87949 5.97334 8.67381C6.29225 8.52814 6.47944 8.51461 8.19818 8.51304L10.0748 8.51132V9.12154C10.0748 9.49182 10.1113 9.76868 10.1677 9.82564C10.3018 9.96129 20.1401 9.96129 20.2742 9.82564C20.3317 9.76751 20.3671 9.48118 20.3671 9.07374V8.41564L22.1276 8.46986C23.0959 8.49967 24.0134 8.55631 24.1664 8.59566ZM6.14359 12.1257C6.00979 12.261 6.00979 19.8607 6.14359 19.9959C6.21471 20.0678 8.32123 20.0898 15.1535 20.0898C23.1567 20.0898 24.083 20.0772 24.1922 19.9669C24.2994 19.8585 24.3138 19.3957 24.3138 16.0608C24.3138 12.7259 24.2994 12.2631 24.1922 12.1547C24.083 12.0444 23.1567 12.0318 15.1535 12.0318C8.32123 12.0318 6.21471 12.0538 6.14359 12.1257ZM23.6173 16.0611V19.4647L15.1629 19.4447L6.7085 19.4248L6.68831 16.0413L6.66819 12.6577H15.1427H23.6173V16.0611ZM6.98702 21.3713C6.9258 21.4459 6.90491 21.9126 6.91946 22.8773L6.94066 24.2753L8.82702 24.2962C10.1536 24.311 10.7449 24.2908 10.8197 24.228C10.9024 24.1586 10.926 23.8374 10.926 22.782C10.926 21.5207 10.9155 21.4196 10.7764 21.3443C10.6857 21.2952 9.92706 21.2633 8.85116 21.2633C7.43547 21.2633 7.05775 21.2852 6.98702 21.3713ZM13.3692 21.3862C13.2683 21.4882 13.2476 21.7325 13.2476 22.8179C13.2476 23.7315 13.2756 24.155 13.3405 24.2205C13.4721 24.3536 16.815 24.3536 16.9467 24.2205C17.0771 24.0886 17.0771 21.4891 16.9467 21.3572C16.8801 21.2899 16.3769 21.2633 15.1723 21.2633C13.7469 21.2633 13.4723 21.282 13.3692 21.3862ZM20.5219 28.6954V36.1276H19.9732C19.4989 36.1276 19.3846 36.0986 19.1304 35.9138C18.5731 35.5088 18.5872 35.6971 18.5872 28.7111C18.5872 22.6738 18.5911 22.5103 18.7449 22.0948C18.9671 21.4943 19.3177 21.2895 20.1543 21.2713L20.5219 21.2633V28.6954ZM27.7006 21.4846C28.2441 21.8766 28.2244 21.6791 28.1981 26.4637C28.185 28.8291 28.1613 30.7776 28.1452 30.7938C28.1292 30.81 27.7458 30.4941 27.2934 30.0918C26.2083 29.1273 25.9151 28.9731 25.165 28.9727C24.5221 28.9723 24.2257 29.0868 23.7846 29.5061C23.368 29.9021 23.1974 30.303 23.1974 30.886C23.1974 31.262 23.2428 31.4819 23.3716 31.7297C23.4674 31.914 24.3803 32.9763 25.4001 34.0903C26.42 35.2043 27.2544 36.136 27.2544 36.1608C27.2544 36.1856 25.8789 36.2058 24.1977 36.2058H21.141V28.7313V21.2567L24.2944 21.2796L27.4479 21.3024L27.7006 21.4846ZM10.2902 22.8084L10.3121 23.6885H8.91655H7.52106V22.787V21.8856L8.89465 21.9069L10.2683 21.9283L10.2902 22.8084ZM16.4204 22.7888V23.6885H15.1436H13.8667V22.841C13.8667 22.3748 13.8899 21.97 13.9183 21.9413C13.9466 21.9126 14.5212 21.8892 15.1952 21.8892H16.4204V22.7888ZM7.10093 26.4714C7.00009 26.5734 6.97936 26.8176 6.97936 27.903C6.97936 28.8166 7.00737 29.2401 7.07222 29.3057C7.139 29.3732 7.65849 29.3995 8.9212 29.3995C10.4512 29.3995 10.6834 29.3836 10.7243 29.2758C10.7501 29.2077 10.7713 28.5577 10.7713 27.8312C10.7713 26.6054 10.7605 26.5046 10.6216 26.4294C10.5321 26.381 9.81918 26.3485 8.84722 26.3485C7.47346 26.3485 7.20377 26.3675 7.10093 26.4714ZM13.3692 26.4714C13.2683 26.5734 13.2476 26.8176 13.2476 27.903C13.2476 28.8166 13.2756 29.2401 13.3405 29.3057C13.4721 29.4387 16.815 29.4387 16.9467 29.3057C17.0117 29.2399 17.0395 28.8073 17.0395 27.8611C17.0395 26.6058 17.0289 26.5047 16.8899 26.4294C16.8003 26.381 16.0874 26.3485 15.1155 26.3485C13.7417 26.3485 13.472 26.3675 13.3692 26.4714ZM10.1522 27.9131V28.7737H8.914H7.67583V27.9131V27.0525H8.914H10.1522V27.9131ZM16.4204 27.9131V28.7737H15.1436H13.8667V27.9131V27.0525H15.1436H16.4204V27.9131ZM31.218 29.6612C32.3126 30.5935 33.2442 31.4242 33.2881 31.5072C33.3812 31.6829 33.4024 39.3352 33.3099 39.335C33.2779 39.3349 32.6947 39.2641 32.0137 39.1777L30.7755 39.0206L30.5047 38.7213C30.3557 38.5568 28.8409 36.8995 27.1384 35.0385C25.4359 33.1775 23.9954 31.5642 23.9373 31.4535C23.7855 31.1645 23.8045 30.5568 23.9744 30.2661C24.2803 29.7426 24.9485 29.47 25.5349 29.6295C25.9258 29.736 26.1354 29.9048 28.4539 31.9815C30.619 33.9206 30.5926 33.9004 30.809 33.7834C31.147 33.6005 31.007 33.3865 29.9228 32.4288L28.8796 31.5074V29.5792V27.6511L29.0537 27.8086C29.1495 27.8951 30.1234 28.7288 31.218 29.6612ZM7.05945 32.0543C7.01379 32.1405 6.97936 32.744 6.97936 33.4569C6.97936 34.4902 7.00056 34.7296 7.10093 34.8312C7.20408 34.9354 7.47865 34.9541 8.90402 34.9541C10.1087 34.9541 10.6118 34.9275 10.6784 34.8602C10.8089 34.7283 10.8089 32.1288 10.6784 31.9969C10.6118 31.9295 10.0995 31.903 8.86254 31.903C7.23829 31.903 7.13498 31.9117 7.05945 32.0543ZM13.3405 31.9969C13.2756 32.0624 13.2476 32.4859 13.2476 33.3995C13.2476 34.4849 13.2683 34.7292 13.3692 34.8312C13.4723 34.9354 13.7469 34.9541 15.1723 34.9541C16.3769 34.9541 16.8801 34.9275 16.9467 34.8602C17.0771 34.7283 17.0771 32.1288 16.9467 31.9969C16.815 31.8638 13.4721 31.8638 13.3405 31.9969ZM10.1522 33.4285V34.3282H8.914H7.67583V33.4285V32.5289H8.914H10.1522V33.4285ZM16.4204 33.4305V34.3321L15.1629 34.3106L13.9054 34.2891L13.8835 33.409L13.8616 32.5289H15.141H16.4204V33.4305Z" fill="#00358A"/>
<path fill-rule="evenodd" clip-rule="evenodd" d="M10.5391 0.11238C9.72237 0.404737 8.33732 1.73266 8.3884 2.17437C8.41061 2.36635 8.42624 2.37073 9.22354 2.40915L10.0361 2.44826L10.0564 5.12774L10.0768 7.80722H8.4226C7.5127 7.80722 6.59204 7.84102 6.3766 7.88233C5.45454 8.05913 4.66707 8.6638 4.2539 9.51224L4 10.0336V22.2396V34.4456L4.16646 34.7976C4.53543 35.5778 5.15158 36.1362 5.98959 36.4497L6.47635 36.6318L12.8994 36.6938C16.432 36.7279 21.2632 36.7818 23.6353 36.8134L27.9481 36.8708L29.1588 38.2008C29.8247 38.9322 30.4088 39.554 30.4568 39.5825C30.5047 39.611 31.2675 39.7288 32.1518 39.8443C33.4272 40.0108 33.7833 40.0346 33.8733 39.959C34.0383 39.8206 34.044 31.6446 33.8794 31.2465C33.8024 31.0602 33.0763 30.3919 31.3257 28.8964L28.8796 26.8067V24.5559C28.8796 22.1197 28.8393 21.8062 28.4626 21.307C28.1523 20.8956 27.5611 20.6374 26.9297 20.6374H26.4032V15.684C26.4032 12.4449 26.374 10.571 26.3189 10.2695C26.0984 9.06341 25.2155 8.15168 24.0198 7.89516C23.7907 7.84603 22.8941 7.80722 21.9884 7.80722H20.3671V4.1449V0.482579L20.1299 0.252808L19.8927 0.0230379L15.39 0.00535727C11.438 -0.0101329 10.8448 0.00293205 10.5391 0.11238ZM18.3541 0.629344C18.3535 0.640062 18.2491 0.856298 18.1219 1.10977C17.9948 1.36325 17.8908 1.61844 17.8908 1.67696C17.8908 1.76529 17.1677 1.78328 13.6194 1.78328H9.34798L9.61047 1.50947C9.95438 1.15077 10.3829 0.854342 10.7479 0.722754C10.9792 0.639358 11.8239 0.615888 14.6986 0.613228C16.7097 0.61135 18.3546 0.618626 18.3541 0.629344ZM19.748 4.99084V9.29365H15.2209H10.6939V5.89052V2.48738H14.4803C17.8193 2.48738 18.281 2.47283 18.3883 2.36447C18.4551 2.2968 18.5101 2.18243 18.5103 2.11022C18.512 1.57612 19.0277 0.804742 19.4239 0.743564C19.5383 0.725883 19.658 0.706169 19.69 0.699754C19.7219 0.69326 19.748 2.62429 19.748 4.99084ZM24.1664 8.59566C24.7294 8.74062 25.3823 9.37181 25.5963 9.97803C25.6788 10.2116 25.7006 11.3297 25.7033 15.4545L25.7067 20.6374H22.6009C20.4977 20.6374 19.3999 20.6662 19.2003 20.7267C18.773 20.8562 18.3618 21.2333 18.1524 21.688L17.9697 22.0848L17.9689 28.7175C17.9682 34.4375 17.9841 35.3889 18.0842 35.6311C18.1481 35.7856 18.2003 35.9429 18.2003 35.9807C18.2003 36.0734 7.55712 36.0645 6.8461 35.9711C5.91306 35.8486 5.19484 35.3925 4.82811 34.6897L4.61909 34.2891V22.2412V10.1933L4.82524 9.80217C5.08425 9.31063 5.52295 8.87949 5.97334 8.67381C6.29225 8.52814 6.47944 8.51461 8.19818 8.51304L10.0748 8.51132V9.12154C10.0748 9.49182 10.1113 9.76868 10.1677 9.82564C10.3018 9.96129 20.1401 9.96129 20.2742 9.82564C20.3317 9.76751 20.3671 9.48118 20.3671 9.07374V8.41564L22.1276 8.46986C23.0959 8.49967 24.0134 8.55631 24.1664 8.59566ZM6.14359 12.1257C6.00979 12.261 6.00979 19.8607 6.14359 19.9959C6.21471 20.0678 8.32123 20.0898 15.1535 20.0898C23.1567 20.0898 24.083 20.0772 24.1922 19.9669C24.2994 19.8585 24.3138 19.3957 24.3138 16.0608C24.3138 12.7259 24.2994 12.2631 24.1922 12.1547C24.083 12.0444 23.1567 12.0318 15.1535 12.0318C8.32123 12.0318 6.21471 12.0538 6.14359 12.1257ZM23.6173 16.0611V19.4647L15.1629 19.4447L6.7085 19.4248L6.68831 16.0413L6.66819 12.6577H15.1427H23.6173V16.0611ZM6.98702 21.3713C6.9258 21.4459 6.90491 21.9126 6.91946 22.8773L6.94066 24.2753L8.82702 24.2962C10.1536 24.311 10.7449 24.2908 10.8197 24.228C10.9024 24.1586 10.926 23.8374 10.926 22.782C10.926 21.5207 10.9155 21.4196 10.7764 21.3443C10.6857 21.2952 9.92706 21.2633 8.85116 21.2633C7.43547 21.2633 7.05775 21.2852 6.98702 21.3713ZM13.3692 21.3862C13.2683 21.4882 13.2476 21.7325 13.2476 22.8179C13.2476 23.7315 13.2756 24.155 13.3405 24.2205C13.4721 24.3536 16.815 24.3536 16.9467 24.2205C17.0771 24.0886 17.0771 21.4891 16.9467 21.3572C16.8801 21.2899 16.3769 21.2633 15.1723 21.2633C13.7469 21.2633 13.4723 21.282 13.3692 21.3862ZM20.5219 28.6954V36.1276H19.9732C19.4989 36.1276 19.3846 36.0986 19.1304 35.9138C18.5731 35.5088 18.5872 35.6971 18.5872 28.7111C18.5872 22.6738 18.5911 22.5103 18.7449 22.0948C18.9671 21.4943 19.3177 21.2895 20.1543 21.2713L20.5219 21.2633V28.6954ZM27.7006 21.4846C28.2441 21.8766 28.2244 21.6791 28.1981 26.4637C28.185 28.8291 28.1613 30.7776 28.1452 30.7938C28.1292 30.81 27.7458 30.4941 27.2934 30.0918C26.2083 29.1273 25.9151 28.9731 25.165 28.9727C24.5221 28.9723 24.2257 29.0868 23.7846 29.5061C23.368 29.9021 23.1974 30.303 23.1974 30.886C23.1974 31.262 23.2428 31.4819 23.3716 31.7297C23.4674 31.914 24.3803 32.9763 25.4001 34.0903C26.42 35.2043 27.2544 36.136 27.2544 36.1608C27.2544 36.1856 25.8789 36.2058 24.1977 36.2058H21.141V28.7313V21.2567L24.2944 21.2796L27.4479 21.3024L27.7006 21.4846ZM10.2902 22.8084L10.3121 23.6885H8.91655H7.52106V22.787V21.8856L8.89465 21.9069L10.2683 21.9283L10.2902 22.8084ZM16.4204 22.7888V23.6885H15.1436H13.8667V22.841C13.8667 22.3748 13.8899 21.97 13.9183 21.9413C13.9466 21.9126 14.5212 21.8892 15.1952 21.8892H16.4204V22.7888ZM7.10093 26.4714C7.00009 26.5734 6.97936 26.8176 6.97936 27.903C6.97936 28.8166 7.00737 29.2401 7.07222 29.3057C7.139 29.3732 7.65849 29.3995 8.9212 29.3995C10.4512 29.3995 10.6834 29.3836 10.7243 29.2758C10.7501 29.2077 10.7713 28.5577 10.7713 27.8312C10.7713 26.6054 10.7605 26.5046 10.6216 26.4294C10.5321 26.381 9.81918 26.3485 8.84722 26.3485C7.47346 26.3485 7.20377 26.3675 7.10093 26.4714ZM13.3692 26.4714C13.2683 26.5734 13.2476 26.8176 13.2476 27.903C13.2476 28.8166 13.2756 29.2401 13.3405 29.3057C13.4721 29.4387 16.815 29.4387 16.9467 29.3057C17.0117 29.2399 17.0395 28.8073 17.0395 27.8611C17.0395 26.6058 17.0289 26.5047 16.8899 26.4294C16.8003 26.381 16.0874 26.3485 15.1155 26.3485C13.7417 26.3485 13.472 26.3675 13.3692 26.4714ZM10.1522 27.9131V28.7737H8.914H7.67583V27.9131V27.0525H8.914H10.1522V27.9131ZM16.4204 27.9131V28.7737H15.1436H13.8667V27.9131V27.0525H15.1436H16.4204V27.9131ZM31.218 29.6612C32.3126 30.5935 33.2442 31.4242 33.2881 31.5072C33.3812 31.6829 33.4024 39.3352 33.3099 39.335C33.2779 39.3349 32.6947 39.2641 32.0137 39.1777L30.7755 39.0206L30.5047 38.7213C30.3557 38.5568 28.8409 36.8995 27.1384 35.0385C25.4359 33.1775 23.9954 31.5642 23.9373 31.4535C23.7855 31.1645 23.8045 30.5568 23.9744 30.2661C24.2803 29.7426 24.9485 29.47 25.5349 29.6295C25.9258 29.736 26.1354 29.9048 28.4539 31.9815C30.619 33.9206 30.5926 33.9004 30.809 33.7834C31.147 33.6005 31.007 33.3865 29.9228 32.4288L28.8796 31.5074V29.5792V27.6511L29.0537 27.8086C29.1495 27.8951 30.1234 28.7288 31.218 29.6612ZM7.05945 32.0543C7.01379 32.1405 6.97936 32.744 6.97936 33.4569C6.97936 34.4902 7.00056 34.7296 7.10093 34.8312C7.20408 34.9354 7.47865 34.9541 8.90402 34.9541C10.1087 34.9541 10.6118 34.9275 10.6784 34.8602C10.8089 34.7283 10.8089 32.1288 10.6784 31.9969C10.6118 31.9295 10.0995 31.903 8.86254 31.903C7.23829 31.903 7.13498 31.9117 7.05945 32.0543ZM13.3405 31.9969C13.2756 32.0624 13.2476 32.4859 13.2476 33.3995C13.2476 34.4849 13.2683 34.7292 13.3692 34.8312C13.4723 34.9354 13.7469 34.9541 15.1723 34.9541C16.3769 34.9541 16.8801 34.9275 16.9467 34.8602C17.0771 34.7283 17.0771 32.1288 16.9467 31.9969C16.815 31.8638 13.4721 31.8638 13.3405 31.9969ZM10.1522 33.4285V34.3282H8.914H7.67583V33.4285V32.5289H8.914H10.1522V33.4285ZM16.4204 33.4305V34.3321L15.1629 34.3106L13.9054 34.2891L13.8835 33.409L13.8616 32.5289H15.141H16.4204V33.4305Z" stroke="#00358A" stroke-width="2" mask="url(#path-1-inside-1_2_178)"/>
</g>
<defs>
<filter id="filter0_d_2_178" x="0" y="0" width="38" height="48" filterUnits="userSpaceOnUse" color-interpolation-filters="sRGB">
<feFlood flood-opacity="0" result="BackgroundImageFix"/>
<feColorMatrix in="SourceAlpha" type="matrix" values="0 0 0 0 0 0 0 0 0 0 0 0 0 0 0 0 0 0 127 0" result="hardAlpha"/>
<feOffset dy="4"/>
<feGaussianBlur stdDeviation="2"/>
<feComposite in2="hardAlpha" operator="out"/>
<feColorMatrix type="matrix" values="0 0 0 0 0 0 0 0 0 0 0 0 0 0 0 0 0 0 0.25 0"/>
<feBlend mode="normal" in2="BackgroundImageFix" result="effect1_dropShadow_2_178"/>
<feBlend mode="normal" in="SourceGraphic" in2="effect1_dropShadow_2_178" result="shape"/>
</filter>
</defs>
</svg>
