<svg width="30" height="40" viewBox="0 0 30 40" fill="none" xmlns="http://www.w3.org/2000/svg">
<path fill-rule="evenodd" clip-rule="evenodd" d="M6.5391 0.11238C5.72237 0.404737 4.33732 1.73266 4.3884 2.17437C4.41061 2.36635 4.42624 2.37073 5.22354 2.40915L6.0361 2.44826L6.05645 5.12774L6.0768 7.80722H4.4226C3.5127 7.80722 2.59204 7.84102 2.3766 7.88233C1.45454 8.05913 0.667066 8.6638 0.253903 9.51224L0 10.0336V22.2396V34.4456L0.166457 34.7976C0.535433 35.5778 1.15158 36.1362 1.98959 36.4497L2.47635 36.6318L8.89937 36.6938C12.432 36.7279 17.2632 36.7818 19.6353 36.8134L23.9481 36.8708L25.1588 38.2008C25.8247 38.9322 26.4088 39.554 26.4568 39.5825C26.5047 39.611 27.2675 39.7288 28.1518 39.8443C29.4272 40.0108 29.7833 40.0346 29.8733 39.959C30.0383 39.8206 30.044 31.6446 29.8794 31.2465C29.8025 31.0602 29.0763 30.3919 27.3257 28.8964L24.8796 26.8067V24.5559C24.8796 22.1197 24.8393 21.8062 24.4626 21.307C24.1523 20.8956 23.5611 20.6374 22.9297 20.6374H22.4032V15.684C22.4032 12.4449 22.374 10.571 22.3189 10.2695C22.0984 9.06341 21.2155 8.15168 20.0198 7.89516C19.7907 7.84603 18.8941 7.80722 17.9884 7.80722H16.3671V4.1449V0.482579L16.1299 0.252808L15.8927 0.0230379L11.39 0.00535727C7.43802 -0.0101329 6.84478 0.00293205 6.5391 0.11238ZM14.3541 0.629344C14.3535 0.640062 14.2491 0.856298 14.1219 1.10977C13.9948 1.36325 13.8908 1.61844 13.8908 1.67696C13.8908 1.76529 13.1677 1.78328 9.61937 1.78328H5.34798L5.61047 1.50947C5.95438 1.15077 6.38286 0.854342 6.74789 0.722754C6.9792 0.639358 7.82386 0.615888 10.6986 0.613228C12.7097 0.61135 14.3546 0.618626 14.3541 0.629344ZM15.748 4.99084V9.29365H11.2209H6.69388V5.89052V2.48738H10.4803C13.8193 2.48738 14.281 2.47283 14.3883 2.36447C14.4551 2.2968 14.5101 2.18243 14.5103 2.11022C14.512 1.57612 15.0277 0.804742 15.4239 0.743564C15.5383 0.725883 15.658 0.706169 15.69 0.699754C15.7219 0.69326 15.748 2.62429 15.748 4.99084ZM20.1664 8.59566C20.7294 8.74062 21.3823 9.37181 21.5963 9.97803C21.6788 10.2116 21.7006 11.3297 21.7033 15.4545L21.7067 20.6374H18.6009C16.4977 20.6374 15.3999 20.6662 15.2003 20.7267C14.773 20.8562 14.3618 21.2333 14.1524 21.688L13.9697 22.0848L13.9689 28.7175C13.9682 34.4375 13.9841 35.3889 14.0842 35.6311C14.1481 35.7856 14.2003 35.9429 14.2003 35.9807C14.2003 36.0734 3.55712 36.0645 2.8461 35.9711C1.91306 35.8486 1.19484 35.3925 0.828106 34.6897L0.619087 34.2891V22.2412V10.1933L0.825243 9.80217C1.08425 9.31063 1.52295 8.87949 1.97334 8.67381C2.29225 8.52814 2.47944 8.51461 4.19818 8.51304L6.07479 8.51132V9.12154C6.07479 9.49182 6.11131 9.76868 6.16765 9.82564C6.30184 9.96129 16.1401 9.96129 16.2742 9.82564C16.3317 9.76751 16.3671 9.48118 16.3671 9.07374V8.41564L18.1276 8.46986C19.0959 8.49967 20.0134 8.55631 20.1664 8.59566ZM2.14359 12.1257C2.00979 12.261 2.00979 19.8607 2.14359 19.9959C2.21471 20.0678 4.32123 20.0898 11.1535 20.0898C19.1567 20.0898 20.083 20.0772 20.1922 19.9669C20.2994 19.8585 20.3138 19.3957 20.3138 16.0608C20.3138 12.7259 20.2994 12.2631 20.1922 12.1547C20.083 12.0444 19.1567 12.0318 11.1535 12.0318C4.32123 12.0318 2.21471 12.0538 2.14359 12.1257ZM19.6173 16.0611V19.4647L11.1629 19.4447L2.7085 19.4248L2.68831 16.0413L2.66819 12.6577H11.1427H19.6173V16.0611ZM2.98702 21.3713C2.9258 21.4459 2.90491 21.9126 2.91946 22.8773L2.94066 24.2753L4.82702 24.2962C6.15365 24.311 6.74487 24.2908 6.81971 24.228C6.90243 24.1586 6.92603 23.8374 6.92603 22.782C6.92603 21.5207 6.91551 21.4196 6.77637 21.3443C6.68567 21.2952 5.92706 21.2633 4.85116 21.2633C3.43547 21.2633 3.05775 21.2852 2.98702 21.3713ZM9.36918 21.3862C9.26835 21.4882 9.24761 21.7325 9.24761 22.8179C9.24761 23.7315 9.27562 24.155 9.34047 24.2205C9.47211 24.3536 12.815 24.3536 12.9467 24.2205C13.0771 24.0886 13.0771 21.4891 12.9467 21.3572C12.8801 21.2899 12.3769 21.2633 11.1723 21.2633C9.7469 21.2633 9.47234 21.282 9.36918 21.3862ZM16.5219 28.6954V36.1276H15.9732C15.4989 36.1276 15.3846 36.0986 15.1304 35.9138C14.5731 35.5088 14.5872 35.6971 14.5872 28.7111C14.5872 22.6738 14.5911 22.5103 14.7449 22.0948C14.9671 21.4943 15.3177 21.2895 16.1543 21.2713L16.5219 21.2633V28.6954ZM23.7006 21.4846C24.2441 21.8766 24.2244 21.6791 24.1981 26.4637C24.185 28.8291 24.1613 30.7776 24.1452 30.7938C24.1292 30.81 23.7458 30.4941 23.2934 30.0918C22.2083 29.1273 21.9151 28.9731 21.165 28.9727C20.5221 28.9723 20.2257 29.0868 19.7846 29.5061C19.368 29.9021 19.1974 30.303 19.1974 30.886C19.1974 31.262 19.2428 31.4819 19.3716 31.7297C19.4674 31.914 20.3803 32.9763 21.4001 34.0903C22.42 35.2043 23.2544 36.136 23.2544 36.1608C23.2544 36.1856 21.8789 36.2058 20.1977 36.2058H17.141V28.7313V21.2567L20.2944 21.2796L23.4479 21.3024L23.7006 21.4846ZM6.29015 22.8084L6.31205 23.6885H4.91655H3.52106V22.787V21.8856L4.89465 21.9069L6.26825 21.9283L6.29015 22.8084ZM12.4204 22.7888V23.6885H11.1436H9.8667V22.841C9.8667 22.3748 9.88991 21.97 9.91831 21.9413C9.94664 21.9126 10.5212 21.8892 11.1952 21.8892H12.4204V22.7888ZM3.10093 26.4714C3.00009 26.5734 2.97936 26.8176 2.97936 27.903C2.97936 28.8166 3.00737 29.2401 3.07222 29.3057C3.139 29.3732 3.65849 29.3995 4.9212 29.3995C6.45119 29.3995 6.68335 29.3836 6.72429 29.2758C6.75014 29.2077 6.77126 28.5577 6.77126 27.8312C6.77126 26.6054 6.7605 26.5046 6.6216 26.4294C6.53206 26.381 5.81918 26.3485 4.84722 26.3485C3.47346 26.3485 3.20377 26.3675 3.10093 26.4714ZM9.36918 26.4714C9.26835 26.5734 9.24761 26.8176 9.24761 27.903C9.24761 28.8166 9.27562 29.2401 9.34047 29.3057C9.47211 29.4387 12.815 29.4387 12.9467 29.3057C13.0117 29.2399 13.0395 28.8073 13.0395 27.8611C13.0395 26.6058 13.0289 26.5047 12.8899 26.4294C12.8003 26.381 12.0874 26.3485 11.1155 26.3485C9.74172 26.3485 9.47203 26.3675 9.36918 26.4714ZM6.15217 27.9131V28.7737H4.914H3.67583V27.9131V27.0525H4.914H6.15217V27.9131ZM12.4204 27.9131V28.7737H11.1436H9.8667V27.9131V27.0525H11.1436H12.4204V27.9131ZM27.218 29.6611C28.3126 30.5935 29.2442 31.4242 29.2881 31.5072C29.3812 31.6829 29.4024 39.3352 29.3099 39.335C29.2779 39.3349 28.6947 39.2641 28.0137 39.1777L26.7755 39.0206L26.5047 38.7213C26.3557 38.5568 24.8409 36.8995 23.1384 35.0385C21.4359 33.1775 19.9954 31.5642 19.9373 31.4535C19.7855 31.1645 19.8045 30.5568 19.9744 30.2661C20.2803 29.7426 20.9485 29.4699 21.5349 29.6295C21.9258 29.736 22.1354 29.9048 24.4539 31.9815C26.619 33.9206 26.5926 33.9004 26.809 33.7834C27.147 33.6005 27.007 33.3865 25.9228 32.4288L24.8796 31.5074V29.5792V27.6511L25.0537 27.8086C25.1495 27.8951 26.1234 28.7288 27.218 29.6611ZM3.05945 32.0543C3.01379 32.1405 2.97936 32.744 2.97936 33.4569C2.97936 34.4902 3.00056 34.7296 3.10093 34.8312C3.20408 34.9354 3.47865 34.9541 4.90402 34.9541C6.10868 34.9541 6.61185 34.9275 6.6784 34.8602C6.80887 34.7283 6.80887 32.1288 6.6784 31.9969C6.61177 31.9295 6.09948 31.903 4.86254 31.903C3.23829 31.903 3.13498 31.9117 3.05945 32.0543ZM9.34047 31.9969C9.27562 32.0624 9.24761 32.4859 9.24761 33.3995C9.24761 34.4849 9.26835 34.7292 9.36918 34.8312C9.47234 34.9354 9.7469 34.9541 11.1723 34.9541C12.3769 34.9541 12.8801 34.9275 12.9467 34.8602C13.0771 34.7283 13.0771 32.1288 12.9467 31.9969C12.815 31.8638 9.47211 31.8638 9.34047 31.9969ZM6.15217 33.4285V34.3282H4.914H3.67583V33.4285V32.5289H4.914H6.15217V33.4285ZM12.4204 33.4305V34.3321L11.1629 34.3106L9.90539 34.2891L9.88349 33.409L9.86159 32.5289H11.141H12.4204V33.4305Z" fill="white"/>
</svg>
